<mxfile>
    <diagram id="uAUSS5AuCfC497PnXvrO" name="Page-1">
        <mxGraphModel dx="3899" dy="1447" grid="1" gridSize="10" guides="1" tooltips="1" connect="1" arrows="1" fold="1" page="1" pageScale="1" pageWidth="850" pageHeight="1100" math="0" shadow="0">
            <root>
                <mxCell id="0"/>
                <mxCell id="1" parent="0"/>
                <mxCell id="ZpYR9GBJYjBJ57970Wno-1" value="Legend" style="swimlane;fillColor=#FFFFFF;fontColor=#000000;fontFamily=Comic Sans MS;" parent="1" vertex="1">
                    <mxGeometry x="-1320" y="-1100" width="160" height="320" as="geometry"/>
                </mxCell>
                <mxCell id="ZpYR9GBJYjBJ57970Wno-2" value="Optional" style="rounded=0;whiteSpace=wrap;html=1;fillColor=#fff2cc;strokeColor=#d6b656;fontColor=#000000;fontFamily=Comic Sans MS;" parent="ZpYR9GBJYjBJ57970Wno-1" vertex="1">
                    <mxGeometry x="30" y="150" width="100" height="30" as="geometry"/>
                </mxCell>
                <mxCell id="ZpYR9GBJYjBJ57970Wno-3" value="Optional but Recommended" style="rounded=0;whiteSpace=wrap;html=1;fillColor=#e1d5e7;strokeColor=#9673a6;fontColor=#000000;fontFamily=Comic Sans MS;" parent="ZpYR9GBJYjBJ57970Wno-1" vertex="1">
                    <mxGeometry x="30" y="90" width="100" height="40" as="geometry"/>
                </mxCell>
                <mxCell id="ZpYR9GBJYjBJ57970Wno-4" value="Essential&lt;br&gt;" style="rounded=0;whiteSpace=wrap;html=1;fillColor=#dae8fc;strokeColor=#6c8ebf;fontFamily=Comic Sans MS;fontColor=#000000;" parent="ZpYR9GBJYjBJ57970Wno-1" vertex="1">
                    <mxGeometry x="30" y="40" width="100" height="30" as="geometry"/>
                </mxCell>
                <mxCell id="HZ-TQ83FuogPrPlQnaqr-46" value="" style="endArrow=classic;html=1;fontColor=#000000;fontFamily=Comic Sans MS;" parent="ZpYR9GBJYjBJ57970Wno-1" edge="1">
                    <mxGeometry width="50" height="50" relative="1" as="geometry">
                        <mxPoint x="55" y="210" as="sourcePoint"/>
                        <mxPoint x="105" y="210" as="targetPoint"/>
                    </mxGeometry>
                </mxCell>
                <mxCell id="HZ-TQ83FuogPrPlQnaqr-47" value="One way Dependency" style="text;html=1;strokeColor=none;fillColor=none;align=center;verticalAlign=middle;whiteSpace=wrap;rounded=0;fontColor=#000000;fontFamily=Comic Sans MS;" parent="ZpYR9GBJYjBJ57970Wno-1" vertex="1">
                    <mxGeometry x="40" y="220" width="80" height="30" as="geometry"/>
                </mxCell>
                <mxCell id="HZ-TQ83FuogPrPlQnaqr-48" value="" style="endArrow=classic;startArrow=classic;html=1;fontColor=#000000;fontFamily=Comic Sans MS;" parent="ZpYR9GBJYjBJ57970Wno-1" edge="1">
                    <mxGeometry width="50" height="50" relative="1" as="geometry">
                        <mxPoint x="55" y="280" as="sourcePoint"/>
                        <mxPoint x="105" y="280" as="targetPoint"/>
                    </mxGeometry>
                </mxCell>
                <mxCell id="HZ-TQ83FuogPrPlQnaqr-49" value="Interrelation" style="text;html=1;strokeColor=none;fillColor=none;align=center;verticalAlign=middle;whiteSpace=wrap;rounded=0;fontColor=#000000;fontFamily=Comic Sans MS;" parent="ZpYR9GBJYjBJ57970Wno-1" vertex="1">
                    <mxGeometry x="40" y="290" width="80" height="20" as="geometry"/>
                </mxCell>
                <mxCell id="ZpYR9GBJYjBJ57970Wno-6" value="" style="shape=flexArrow;endArrow=classic;html=1;fontSize=30;entryX=0.5;entryY=0;entryDx=0;entryDy=0;fillColor=#e1d5e7;strokeColor=#9673a6;exitX=0.5;exitY=1;exitDx=0;exitDy=0;fontColor=#000000;fontFamily=Comic Sans MS;" parent="1" source="ZpYR9GBJYjBJ57970Wno-7" target="ZpYR9GBJYjBJ57970Wno-8" edge="1">
                    <mxGeometry width="50" height="50" relative="1" as="geometry">
                        <mxPoint x="-579" y="-1040" as="sourcePoint"/>
                        <mxPoint x="-579" y="-510" as="targetPoint"/>
                    </mxGeometry>
                </mxCell>
                <mxCell id="ZpYR9GBJYjBJ57970Wno-7" value="Start" style="rounded=0;whiteSpace=wrap;html=1;fontSize=30;fillColor=#e1d5e7;strokeColor=#9673a6;fontColor=#000000;fontFamily=Comic Sans MS;" parent="1" vertex="1">
                    <mxGeometry x="-600" y="-1100" width="120" height="60" as="geometry"/>
                </mxCell>
                <mxCell id="ZpYR9GBJYjBJ57970Wno-19" style="edgeStyle=orthogonalEdgeStyle;rounded=0;orthogonalLoop=1;jettySize=auto;html=1;fillColor=#e1d5e7;strokeColor=#9673a6;fontColor=#000000;fontFamily=Comic Sans MS;" parent="1" source="ZpYR9GBJYjBJ57970Wno-8" target="ZpYR9GBJYjBJ57970Wno-16" edge="1">
                    <mxGeometry relative="1" as="geometry"/>
                </mxCell>
                <mxCell id="ZpYR9GBJYjBJ57970Wno-8" value="Introduction to Philosophy" style="swimlane;fillColor=#e1d5e7;strokeColor=#9673a6;fontColor=#000000;fontFamily=Comic Sans MS;" parent="1" vertex="1">
                    <mxGeometry x="-780" y="-760" width="480" height="200" as="geometry"/>
                </mxCell>
                <mxCell id="ZpYR9GBJYjBJ57970Wno-9" value="Think: A Compelling Introduction to Philosophy&lt;br&gt;&lt;b&gt;Simon Blackburn&lt;/b&gt;&lt;br&gt;" style="rounded=0;whiteSpace=wrap;html=1;fillColor=#e1d5e7;strokeColor=#9673a6;fontColor=#000000;fontFamily=Comic Sans MS;" parent="ZpYR9GBJYjBJ57970Wno-8" vertex="1">
                    <mxGeometry x="140" y="40" width="200" height="60" as="geometry"/>
                </mxCell>
                <mxCell id="ZpYR9GBJYjBJ57970Wno-10" value="Philosophy: A Text with Readings&lt;br&gt;&lt;b&gt;Manuel Velasquez&lt;/b&gt;" style="rounded=0;whiteSpace=wrap;html=1;fillColor=#e1d5e7;strokeColor=#9673a6;fontColor=#000000;fontFamily=Comic Sans MS;" parent="ZpYR9GBJYjBJ57970Wno-8" vertex="1">
                    <mxGeometry x="10" y="120" width="200" height="60" as="geometry"/>
                </mxCell>
                <mxCell id="ZpYR9GBJYjBJ57970Wno-11" value="Thinking It Through: An Introduction to Contemporary Philosophy&lt;br&gt;&lt;b&gt;Kwame Appiah&lt;/b&gt;" style="rounded=0;whiteSpace=wrap;html=1;fillColor=#e1d5e7;strokeColor=#9673a6;fontColor=#000000;fontFamily=Comic Sans MS;" parent="ZpYR9GBJYjBJ57970Wno-8" vertex="1">
                    <mxGeometry x="230" y="120" width="241" height="60" as="geometry"/>
                </mxCell>
                <mxCell id="ZpYR9GBJYjBJ57970Wno-27" style="edgeStyle=orthogonalEdgeStyle;rounded=0;orthogonalLoop=1;jettySize=auto;html=1;exitX=0.5;exitY=1;exitDx=0;exitDy=0;entryX=0.5;entryY=0;entryDx=0;entryDy=0;fillColor=#e1d5e7;strokeColor=#9673a6;fontColor=#000000;fontFamily=Comic Sans MS;" parent="1" source="ZpYR9GBJYjBJ57970Wno-16" target="ZpYR9GBJYjBJ57970Wno-20" edge="1">
                    <mxGeometry relative="1" as="geometry"/>
                </mxCell>
                <mxCell id="HZ-TQ83FuogPrPlQnaqr-62" style="edgeStyle=orthogonalEdgeStyle;rounded=0;orthogonalLoop=1;jettySize=auto;html=1;exitX=1;exitY=0.5;exitDx=0;exitDy=0;entryX=0.5;entryY=0;entryDx=0;entryDy=0;fillColor=#e1d5e7;strokeColor=#9673a6;fontColor=#000000;fontFamily=Comic Sans MS;" parent="1" source="ZpYR9GBJYjBJ57970Wno-16" target="HZ-TQ83FuogPrPlQnaqr-56" edge="1">
                    <mxGeometry relative="1" as="geometry"/>
                </mxCell>
                <mxCell id="ZpYR9GBJYjBJ57970Wno-16" value="Introduction to Logic" style="swimlane;fillColor=#e1d5e7;strokeColor=#9673a6;fontColor=#000000;fontFamily=Comic Sans MS;" parent="1" vertex="1">
                    <mxGeometry x="-730" y="-440" width="380" height="120" as="geometry"/>
                </mxCell>
                <mxCell id="ZpYR9GBJYjBJ57970Wno-17" value="The Power of Logic&lt;br&gt;&lt;b&gt;Frances Howard-Snyder, Daniel Howard-Snyder, Ryan Wasserman&lt;/b&gt;" style="rounded=0;whiteSpace=wrap;html=1;fillColor=#e1d5e7;strokeColor=#9673a6;fontColor=#000000;fontFamily=Comic Sans MS;" parent="ZpYR9GBJYjBJ57970Wno-16" vertex="1">
                    <mxGeometry x="10" y="40" width="180" height="70" as="geometry"/>
                </mxCell>
                <mxCell id="ZpYR9GBJYjBJ57970Wno-18" value="A Concise Introduction to Logic&lt;br&gt;&lt;b&gt;Patrick J. Hurely&lt;/b&gt;" style="rounded=0;whiteSpace=wrap;html=1;fillColor=#e1d5e7;strokeColor=#9673a6;fontColor=#000000;fontFamily=Comic Sans MS;" parent="ZpYR9GBJYjBJ57970Wno-16" vertex="1">
                    <mxGeometry x="210" y="40" width="160" height="70" as="geometry"/>
                </mxCell>
                <mxCell id="ZpYR9GBJYjBJ57970Wno-38" style="edgeStyle=orthogonalEdgeStyle;rounded=0;orthogonalLoop=1;jettySize=auto;html=1;exitX=0.5;exitY=1;exitDx=0;exitDy=0;fontColor=#000000;fontFamily=Comic Sans MS;" parent="1" source="ZpYR9GBJYjBJ57970Wno-20" target="ZpYR9GBJYjBJ57970Wno-36" edge="1">
                    <mxGeometry relative="1" as="geometry"/>
                </mxCell>
                <mxCell id="ZpYR9GBJYjBJ57970Wno-20" value="Precalculus" style="swimlane;fillColor=#dae8fc;strokeColor=#6c8ebf;fontColor=#000000;fontFamily=Comic Sans MS;" parent="1" vertex="1">
                    <mxGeometry x="-720" y="-200" width="360" height="120" as="geometry"/>
                </mxCell>
                <mxCell id="ZpYR9GBJYjBJ57970Wno-21" value="Precalculus: Mathematics for Calculus&lt;br&gt;&lt;b&gt;James Stewart, Lothar Redlin, Saleem Watson&lt;/b&gt;" style="rounded=0;whiteSpace=wrap;html=1;fillColor=#dae8fc;strokeColor=#6c8ebf;fontColor=#000000;fontFamily=Comic Sans MS;" parent="ZpYR9GBJYjBJ57970Wno-20" vertex="1">
                    <mxGeometry x="10" y="40" width="170" height="70" as="geometry"/>
                </mxCell>
                <mxCell id="ZpYR9GBJYjBJ57970Wno-32" value="Precalculus&lt;br&gt;&lt;b&gt;Michael Sullivan&lt;/b&gt;" style="rounded=0;whiteSpace=wrap;html=1;fillColor=#dae8fc;strokeColor=#6c8ebf;fontColor=#000000;fontFamily=Comic Sans MS;" parent="ZpYR9GBJYjBJ57970Wno-20" vertex="1">
                    <mxGeometry x="200" y="40" width="150" height="70" as="geometry"/>
                </mxCell>
                <mxCell id="ZpYR9GBJYjBJ57970Wno-53" style="edgeStyle=orthogonalEdgeStyle;rounded=0;orthogonalLoop=1;jettySize=auto;html=1;exitX=0.5;exitY=1;exitDx=0;exitDy=0;fontColor=#000000;fontFamily=Comic Sans MS;" parent="1" source="ZpYR9GBJYjBJ57970Wno-36" target="ZpYR9GBJYjBJ57970Wno-49" edge="1">
                    <mxGeometry relative="1" as="geometry"/>
                </mxCell>
                <mxCell id="ZpYR9GBJYjBJ57970Wno-108" style="edgeStyle=orthogonalEdgeStyle;rounded=0;orthogonalLoop=1;jettySize=auto;html=1;exitX=1;exitY=0.5;exitDx=0;exitDy=0;entryX=0;entryY=0.5;entryDx=0;entryDy=0;fillColor=#e1d5e7;strokeColor=#9673a6;fontColor=#000000;fontFamily=Comic Sans MS;" parent="1" source="ZpYR9GBJYjBJ57970Wno-36" target="ZpYR9GBJYjBJ57970Wno-66" edge="1">
                    <mxGeometry relative="1" as="geometry"/>
                </mxCell>
                <mxCell id="ZpYR9GBJYjBJ57970Wno-111" style="edgeStyle=orthogonalEdgeStyle;rounded=0;orthogonalLoop=1;jettySize=auto;html=1;exitX=0;exitY=0.5;exitDx=0;exitDy=0;entryX=1;entryY=0.5;entryDx=0;entryDy=0;fillColor=#fff2cc;strokeColor=#d6b656;fontColor=#000000;fontFamily=Comic Sans MS;" parent="1" source="ZpYR9GBJYjBJ57970Wno-36" target="ZpYR9GBJYjBJ57970Wno-109" edge="1">
                    <mxGeometry relative="1" as="geometry"/>
                </mxCell>
                <mxCell id="ZpYR9GBJYjBJ57970Wno-36" value="Calculus" style="swimlane;fillColor=#dae8fc;strokeColor=#6c8ebf;fontColor=#000000;fontFamily=Comic Sans MS;" parent="1" vertex="1">
                    <mxGeometry x="-760" y="40" width="440" height="240" as="geometry"/>
                </mxCell>
                <mxCell id="ZpYR9GBJYjBJ57970Wno-37" value="Calculus: Early Transcendentals&lt;br&gt;&lt;b&gt;James Stewart&lt;/b&gt;" style="rounded=0;whiteSpace=wrap;html=1;fillColor=#dae8fc;strokeColor=#6c8ebf;fontColor=#000000;fontFamily=Comic Sans MS;" parent="ZpYR9GBJYjBJ57970Wno-36" vertex="1">
                    <mxGeometry x="125" y="40" width="190" height="80" as="geometry"/>
                </mxCell>
                <mxCell id="ZpYR9GBJYjBJ57970Wno-44" value="Infinite Powers: How Calculus Reveals the Secrets of the Universe&lt;br&gt;&lt;b&gt;Steven H. Strogatz&lt;/b&gt;" style="rounded=0;whiteSpace=wrap;html=1;fillColor=#e1d5e7;strokeColor=#9673a6;fontColor=#000000;fontFamily=Comic Sans MS;" parent="ZpYR9GBJYjBJ57970Wno-36" vertex="1">
                    <mxGeometry x="20" y="140" width="190" height="80" as="geometry"/>
                </mxCell>
                <mxCell id="ZpYR9GBJYjBJ57970Wno-48" value="Thomas' Calculus&lt;br&gt;&lt;b&gt;George B. Thomas, Jr.&lt;/b&gt;" style="rounded=0;whiteSpace=wrap;html=1;fillColor=#dae8fc;strokeColor=#6c8ebf;fontColor=#000000;fontFamily=Comic Sans MS;" parent="ZpYR9GBJYjBJ57970Wno-36" vertex="1">
                    <mxGeometry x="230" y="140" width="190" height="80" as="geometry"/>
                </mxCell>
                <mxCell id="ZpYR9GBJYjBJ57970Wno-39" value="" style="shape=flexArrow;endArrow=classic;html=1;entryX=0;entryY=0.5;entryDx=0;entryDy=0;fillColor=#dae8fc;strokeColor=#6c8ebf;fontColor=#000000;fontFamily=Comic Sans MS;" parent="1" target="ZpYR9GBJYjBJ57970Wno-20" edge="1">
                    <mxGeometry width="50" height="50" relative="1" as="geometry">
                        <mxPoint x="-982.5" y="-1050" as="sourcePoint"/>
                        <mxPoint x="-981" y="-256" as="targetPoint"/>
                        <Array as="points">
                            <mxPoint x="-980" y="-140"/>
                        </Array>
                    </mxGeometry>
                </mxCell>
                <mxCell id="ZpYR9GBJYjBJ57970Wno-40" value="Start" style="rounded=0;whiteSpace=wrap;html=1;fontSize=30;fillColor=#dae8fc;strokeColor=#6c8ebf;fontColor=#000000;fontFamily=Comic Sans MS;" parent="1" vertex="1">
                    <mxGeometry x="-1040" y="-1100" width="120" height="60" as="geometry"/>
                </mxCell>
                <mxCell id="ZpYR9GBJYjBJ57970Wno-59" style="edgeStyle=orthogonalEdgeStyle;rounded=0;orthogonalLoop=1;jettySize=auto;html=1;exitX=1;exitY=0.5;exitDx=0;exitDy=0;entryX=0;entryY=0.5;entryDx=0;entryDy=0;fontColor=#000000;fontFamily=Comic Sans MS;" parent="1" source="ZpYR9GBJYjBJ57970Wno-49" target="ZpYR9GBJYjBJ57970Wno-54" edge="1">
                    <mxGeometry relative="1" as="geometry"/>
                </mxCell>
                <mxCell id="ZpYR9GBJYjBJ57970Wno-78" style="edgeStyle=orthogonalEdgeStyle;rounded=0;orthogonalLoop=1;jettySize=auto;html=1;exitX=0.5;exitY=1;exitDx=0;exitDy=0;entryX=0.5;entryY=0;entryDx=0;entryDy=0;fontColor=#000000;fontFamily=Comic Sans MS;" parent="1" source="ZpYR9GBJYjBJ57970Wno-49" target="ZpYR9GBJYjBJ57970Wno-72" edge="1">
                    <mxGeometry relative="1" as="geometry"/>
                </mxCell>
                <mxCell id="ZpYR9GBJYjBJ57970Wno-49" value="Introduction to Linear Algebra" style="swimlane;fillColor=#dae8fc;strokeColor=#6c8ebf;fontColor=#000000;fontFamily=Comic Sans MS;" parent="1" vertex="1">
                    <mxGeometry x="-718.75" y="400" width="357.5" height="200" as="geometry"/>
                </mxCell>
                <mxCell id="ZpYR9GBJYjBJ57970Wno-50" value="Elementary Linear Algebra&lt;br&gt;&lt;b&gt;Howard Anton, Chris Rorres&lt;/b&gt;&lt;br&gt;" style="rounded=0;whiteSpace=wrap;html=1;fillColor=#dae8fc;strokeColor=#6c8ebf;fontColor=#000000;fontFamily=Comic Sans MS;" parent="ZpYR9GBJYjBJ57970Wno-49" vertex="1">
                    <mxGeometry x="98.75" y="42.5" width="160" height="60" as="geometry"/>
                </mxCell>
                <mxCell id="ZpYR9GBJYjBJ57970Wno-51" value="Introduction to Linear Algebra &lt;br&gt;&lt;b&gt;Gilbert Strang&lt;/b&gt;" style="rounded=0;whiteSpace=wrap;html=1;fillColor=#dae8fc;strokeColor=#6c8ebf;fontColor=#000000;fontFamily=Comic Sans MS;" parent="ZpYR9GBJYjBJ57970Wno-49" vertex="1">
                    <mxGeometry x="15" y="120" width="135" height="70" as="geometry"/>
                </mxCell>
                <mxCell id="ZpYR9GBJYjBJ57970Wno-52" value="Linear Algebra and Its Applications &lt;br&gt;&lt;b&gt;David C. Lay, Steven R. Lay, Judi J. McDonald&lt;/b&gt;&lt;br&gt;" style="rounded=0;whiteSpace=wrap;html=1;fillColor=#dae8fc;strokeColor=#6c8ebf;fontColor=#000000;fontFamily=Comic Sans MS;" parent="ZpYR9GBJYjBJ57970Wno-49" vertex="1">
                    <mxGeometry x="165" y="120" width="180" height="70" as="geometry"/>
                </mxCell>
                <mxCell id="ZpYR9GBJYjBJ57970Wno-54" value="Introduction to Differential Equations" style="swimlane;fillColor=#dae8fc;strokeColor=#6c8ebf;fontColor=#000000;fontFamily=Comic Sans MS;" parent="1" vertex="1">
                    <mxGeometry x="-240" y="365" width="280" height="270" as="geometry"/>
                </mxCell>
                <mxCell id="ZpYR9GBJYjBJ57970Wno-55" value="Elementary Differential Equations and Boundary Value Problems&lt;br&gt;&lt;b&gt;William E. Boyce, Richard C. DiPrima&lt;/b&gt;" style="rounded=0;whiteSpace=wrap;html=1;fillColor=#dae8fc;strokeColor=#6c8ebf;fontColor=#000000;fontFamily=Comic Sans MS;" parent="ZpYR9GBJYjBJ57970Wno-54" vertex="1">
                    <mxGeometry x="22.5" y="40" width="235" height="60" as="geometry"/>
                </mxCell>
                <mxCell id="ZpYR9GBJYjBJ57970Wno-57" value="Fundamentals of Differential Equations&lt;br&gt;&lt;span&gt;&lt;b&gt;David Snider, Edward B. Saff, and R. Kent Nagle&lt;/b&gt;&lt;/span&gt;&lt;br&gt;" style="rounded=0;whiteSpace=wrap;html=1;fillColor=#dae8fc;strokeColor=#6c8ebf;fontColor=#000000;fontFamily=Comic Sans MS;" parent="ZpYR9GBJYjBJ57970Wno-54" vertex="1">
                    <mxGeometry x="25" y="195" width="234" height="60" as="geometry"/>
                </mxCell>
                <mxCell id="ZpYR9GBJYjBJ57970Wno-58" value="Differential Equations&lt;br&gt;&lt;b&gt;Dennis Zill, Warren Wright&lt;/b&gt;" style="rounded=0;whiteSpace=wrap;html=1;fillColor=#dae8fc;strokeColor=#6c8ebf;fontColor=#000000;fontFamily=Comic Sans MS;" parent="ZpYR9GBJYjBJ57970Wno-54" vertex="1">
                    <mxGeometry x="25" y="115" width="230" height="60" as="geometry"/>
                </mxCell>
                <mxCell id="ZpYR9GBJYjBJ57970Wno-66" value="Problem Solving" style="swimlane;fillColor=#e1d5e7;strokeColor=#9673a6;fontColor=#000000;fontFamily=Comic Sans MS;" parent="1" vertex="1">
                    <mxGeometry x="-200" y="20" width="310" height="280" as="geometry"/>
                </mxCell>
                <mxCell id="ZpYR9GBJYjBJ57970Wno-67" value="How to Solve It&lt;br&gt;&lt;b&gt;G. Polya&lt;/b&gt;" style="rounded=0;whiteSpace=wrap;html=1;fillColor=#e1d5e7;strokeColor=#9673a6;fontColor=#000000;fontFamily=Comic Sans MS;" parent="ZpYR9GBJYjBJ57970Wno-66" vertex="1">
                    <mxGeometry x="19.92" y="40" width="110" height="60" as="geometry"/>
                </mxCell>
                <mxCell id="ZpYR9GBJYjBJ57970Wno-68" value="Solving Mathematical Problems&lt;br&gt;&lt;b&gt;Terence Tao&lt;/b&gt;" style="rounded=0;whiteSpace=wrap;html=1;fillColor=#e1d5e7;strokeColor=#9673a6;fontColor=#000000;fontFamily=Comic Sans MS;" parent="ZpYR9GBJYjBJ57970Wno-66" vertex="1">
                    <mxGeometry x="150.08999999999997" y="40" width="140" height="60" as="geometry"/>
                </mxCell>
                <mxCell id="ZpYR9GBJYjBJ57970Wno-69" value="&lt;div&gt;Mathematical Discovery: On Understanding, Learning and Teaching Problem Solving&lt;/div&gt;&lt;div&gt;&lt;b&gt;George Polya&lt;/b&gt;&lt;/div&gt;" style="rounded=0;whiteSpace=wrap;html=1;fillColor=#e1d5e7;strokeColor=#9673a6;fontColor=#000000;fontFamily=Comic Sans MS;" parent="ZpYR9GBJYjBJ57970Wno-66" vertex="1">
                    <mxGeometry x="19.92" y="200" width="270.17" height="60" as="geometry"/>
                </mxCell>
                <mxCell id="ZpYR9GBJYjBJ57970Wno-70" value="&lt;div&gt;How to Solve Mathematical Problems&lt;/div&gt;&lt;div&gt;&lt;b&gt;Wayne Wickelgren&lt;/b&gt;&lt;/div&gt;" style="rounded=0;whiteSpace=wrap;html=1;fillColor=#e1d5e7;strokeColor=#9673a6;fontColor=#000000;fontFamily=Comic Sans MS;" parent="ZpYR9GBJYjBJ57970Wno-66" vertex="1">
                    <mxGeometry x="40" y="120" width="230" height="60" as="geometry"/>
                </mxCell>
                <mxCell id="HZ-TQ83FuogPrPlQnaqr-28" style="edgeStyle=orthogonalEdgeStyle;rounded=0;orthogonalLoop=1;jettySize=auto;html=1;exitX=1;exitY=0.25;exitDx=0;exitDy=0;entryX=0;entryY=0.5;entryDx=0;entryDy=0;fontColor=#000000;fontFamily=Comic Sans MS;" parent="1" source="ZpYR9GBJYjBJ57970Wno-72" target="HZ-TQ83FuogPrPlQnaqr-14" edge="1">
                    <mxGeometry relative="1" as="geometry"/>
                </mxCell>
                <mxCell id="HZ-TQ83FuogPrPlQnaqr-69" style="edgeStyle=orthogonalEdgeStyle;rounded=0;orthogonalLoop=1;jettySize=auto;html=1;exitX=0.5;exitY=1;exitDx=0;exitDy=0;entryX=0.5;entryY=0;entryDx=0;entryDy=0;fontColor=#000000;fontFamily=Comic Sans MS;" parent="1" source="ZpYR9GBJYjBJ57970Wno-72" target="HZ-TQ83FuogPrPlQnaqr-63" edge="1">
                    <mxGeometry relative="1" as="geometry"/>
                </mxCell>
                <mxCell id="HZ-TQ83FuogPrPlQnaqr-84" style="edgeStyle=orthogonalEdgeStyle;rounded=0;orthogonalLoop=1;jettySize=auto;html=1;exitX=0.75;exitY=1;exitDx=0;exitDy=0;entryX=0.5;entryY=0;entryDx=0;entryDy=0;fontColor=#000000;fontFamily=Comic Sans MS;" parent="1" source="ZpYR9GBJYjBJ57970Wno-72" target="HZ-TQ83FuogPrPlQnaqr-79" edge="1">
                    <mxGeometry relative="1" as="geometry"/>
                </mxCell>
                <mxCell id="HZ-TQ83FuogPrPlQnaqr-98" style="edgeStyle=orthogonalEdgeStyle;rounded=0;orthogonalLoop=1;jettySize=auto;html=1;exitX=0;exitY=0.5;exitDx=0;exitDy=0;entryX=1;entryY=0.5;entryDx=0;entryDy=0;fontColor=#000000;fontFamily=Comic Sans MS;" parent="1" source="ZpYR9GBJYjBJ57970Wno-72" target="HZ-TQ83FuogPrPlQnaqr-85" edge="1">
                    <mxGeometry relative="1" as="geometry"/>
                </mxCell>
                <mxCell id="HZ-TQ83FuogPrPlQnaqr-99" style="edgeStyle=orthogonalEdgeStyle;rounded=0;orthogonalLoop=1;jettySize=auto;html=1;exitX=0.25;exitY=1;exitDx=0;exitDy=0;entryX=0.5;entryY=0;entryDx=0;entryDy=0;fontColor=#000000;fontFamily=Comic Sans MS;" parent="1" source="ZpYR9GBJYjBJ57970Wno-72" target="HZ-TQ83FuogPrPlQnaqr-70" edge="1">
                    <mxGeometry relative="1" as="geometry"/>
                </mxCell>
                <mxCell id="ZpYR9GBJYjBJ57970Wno-72" value="Naive Set Theory, Mathematical Reasoning, Proofs, and Discrete Mathematics" style="swimlane;fillColor=#dae8fc;strokeColor=#6c8ebf;fontColor=#000000;fontFamily=Comic Sans MS;" parent="1" vertex="1">
                    <mxGeometry x="-880" y="720" width="680" height="240" as="geometry"/>
                </mxCell>
                <mxCell id="ZpYR9GBJYjBJ57970Wno-74" value="How to Prove It&lt;br&gt;&lt;b&gt;Daniel J. Velleman&lt;/b&gt;" style="rounded=0;whiteSpace=wrap;html=1;fillColor=#dae8fc;strokeColor=#6c8ebf;fontColor=#000000;fontFamily=Comic Sans MS;" parent="ZpYR9GBJYjBJ57970Wno-72" vertex="1">
                    <mxGeometry x="20" y="40" width="130" height="60" as="geometry"/>
                </mxCell>
                <mxCell id="ZpYR9GBJYjBJ57970Wno-76" value="Introduction to Mathematical Proofs&lt;br&gt;&lt;b&gt;Charles E. Roberts&lt;/b&gt;" style="rounded=0;whiteSpace=wrap;html=1;fillColor=#dae8fc;strokeColor=#6c8ebf;fontColor=#000000;fontFamily=Comic Sans MS;" parent="ZpYR9GBJYjBJ57970Wno-72" vertex="1">
                    <mxGeometry x="160" y="40" width="170" height="60" as="geometry"/>
                </mxCell>
                <mxCell id="ZpYR9GBJYjBJ57970Wno-77" value="Proofs and Fundamentals&lt;br&gt;&lt;b&gt;Ethan D. Bloch&lt;/b&gt;&lt;br&gt;" style="rounded=0;whiteSpace=wrap;html=1;fillColor=#dae8fc;strokeColor=#6c8ebf;fontColor=#000000;fontFamily=Comic Sans MS;" parent="ZpYR9GBJYjBJ57970Wno-72" vertex="1">
                    <mxGeometry x="480" y="40" width="166" height="60" as="geometry"/>
                </mxCell>
                <mxCell id="ZpYR9GBJYjBJ57970Wno-75" value="Book Of Proof&lt;br&gt;&lt;b&gt;Richard Hammak&lt;/b&gt;&lt;br&gt;" style="rounded=0;whiteSpace=wrap;html=1;fillColor=#dae8fc;strokeColor=#6c8ebf;fontColor=#000000;fontFamily=Comic Sans MS;" parent="ZpYR9GBJYjBJ57970Wno-72" vertex="1">
                    <mxGeometry x="340" y="40" width="130" height="60" as="geometry"/>
                </mxCell>
                <mxCell id="ZpYR9GBJYjBJ57970Wno-95" value="Discrete Mathematics" style="swimlane;fillColor=#dae8fc;strokeColor=#6c8ebf;fontColor=#000000;fontFamily=Comic Sans MS;" parent="ZpYR9GBJYjBJ57970Wno-72" vertex="1">
                    <mxGeometry x="50" y="110" width="560" height="110" as="geometry"/>
                </mxCell>
                <mxCell id="ZpYR9GBJYjBJ57970Wno-73" value="Discrete Mathematics with Applications&lt;br&gt;&lt;b&gt;Susanna S. Epp&lt;/b&gt;" style="rounded=0;whiteSpace=wrap;html=1;fillColor=#dae8fc;strokeColor=#6c8ebf;fontColor=#000000;fontFamily=Comic Sans MS;" parent="ZpYR9GBJYjBJ57970Wno-95" vertex="1">
                    <mxGeometry x="10" y="40" width="170" height="60" as="geometry"/>
                </mxCell>
                <mxCell id="ZpYR9GBJYjBJ57970Wno-85" value="Discrete Mathematics and Its Applications&lt;br&gt;&lt;b&gt;Kenneth H. Rosen&lt;/b&gt;&lt;b&gt;&lt;br&gt;&lt;/b&gt;" style="rounded=0;whiteSpace=wrap;html=1;fillColor=#dae8fc;strokeColor=#6c8ebf;fontColor=#000000;fontFamily=Comic Sans MS;" parent="ZpYR9GBJYjBJ57970Wno-95" vertex="1">
                    <mxGeometry x="196" y="40" width="166" height="60" as="geometry"/>
                </mxCell>
                <mxCell id="ZpYR9GBJYjBJ57970Wno-102" value="&lt;div&gt;Mathematics: A Discrete Introduction&lt;/div&gt;&lt;div&gt;&lt;b&gt;Edward R. Scheinerman&lt;/b&gt;&lt;/div&gt;" style="rounded=0;whiteSpace=wrap;html=1;fillColor=#dae8fc;strokeColor=#6c8ebf;fontColor=#000000;fontFamily=Comic Sans MS;" parent="ZpYR9GBJYjBJ57970Wno-95" vertex="1">
                    <mxGeometry x="380" y="40" width="166" height="60" as="geometry"/>
                </mxCell>
                <mxCell id="ZpYR9GBJYjBJ57970Wno-109" value="Introduction to Physics" style="swimlane;fillColor=#fff2cc;strokeColor=#d6b656;fontColor=#000000;fontFamily=Comic Sans MS;" parent="1" vertex="1">
                    <mxGeometry x="-1300" y="50" width="420" height="220" as="geometry"/>
                </mxCell>
                <mxCell id="ZpYR9GBJYjBJ57970Wno-110" value="Physics for Scientists and Engineers with Modern Physics&lt;br&gt;&lt;b&gt;Raymond A. Serway, John W. Jewett Jr.&lt;/b&gt;&lt;br&gt;" style="rounded=0;whiteSpace=wrap;html=1;fillColor=#fff2cc;strokeColor=#d6b656;fontColor=#000000;fontFamily=Comic Sans MS;" parent="ZpYR9GBJYjBJ57970Wno-109" vertex="1">
                    <mxGeometry x="15" y="44" width="190" height="75" as="geometry"/>
                </mxCell>
                <mxCell id="ZpYR9GBJYjBJ57970Wno-112" value="An Introduction to Physical Science&lt;br&gt;&lt;b&gt;James T. Shipman, Jerry D. Wilson, Charles A. Higgens Jr.&lt;/b&gt;" style="rounded=0;whiteSpace=wrap;html=1;fillColor=#fff2cc;strokeColor=#d6b656;fontColor=#000000;fontFamily=Comic Sans MS;" parent="ZpYR9GBJYjBJ57970Wno-109" vertex="1">
                    <mxGeometry x="220" y="44" width="190" height="75" as="geometry"/>
                </mxCell>
                <mxCell id="ZpYR9GBJYjBJ57970Wno-115" value="Physics for Scientists and Engineers: A Strategic Approach with Modern Physics&lt;br&gt;&lt;b&gt;Randall D. Knight&lt;/b&gt;" style="rounded=0;whiteSpace=wrap;html=1;fillColor=#fff2cc;strokeColor=#d6b656;fontColor=#000000;fontFamily=Comic Sans MS;" parent="ZpYR9GBJYjBJ57970Wno-109" vertex="1">
                    <mxGeometry x="115" y="130" width="190" height="75" as="geometry"/>
                </mxCell>
                <mxCell id="ZpYR9GBJYjBJ57970Wno-122" style="edgeStyle=orthogonalEdgeStyle;rounded=0;orthogonalLoop=1;jettySize=auto;html=1;exitX=0;exitY=0.5;exitDx=0;exitDy=0;entryX=1;entryY=0.5;entryDx=0;entryDy=0;fillColor=#fff2cc;strokeColor=#d6b656;fontColor=#000000;fontFamily=Comic Sans MS;" parent="1" source="ZpYR9GBJYjBJ57970Wno-117" target="ZpYR9GBJYjBJ57970Wno-95" edge="1">
                    <mxGeometry relative="1" as="geometry"/>
                </mxCell>
                <mxCell id="HZ-TQ83FuogPrPlQnaqr-44" style="edgeStyle=orthogonalEdgeStyle;rounded=0;orthogonalLoop=1;jettySize=auto;html=1;exitX=1;exitY=0.75;exitDx=0;exitDy=0;entryX=0.5;entryY=1;entryDx=0;entryDy=0;fillColor=#fff2cc;strokeColor=#d6b656;fontColor=#000000;fontFamily=Comic Sans MS;" parent="1" source="ZpYR9GBJYjBJ57970Wno-117" target="HZ-TQ83FuogPrPlQnaqr-37" edge="1">
                    <mxGeometry relative="1" as="geometry"/>
                </mxCell>
                <mxCell id="HZ-TQ83FuogPrPlQnaqr-125" style="edgeStyle=orthogonalEdgeStyle;rounded=0;orthogonalLoop=1;jettySize=auto;html=1;exitX=0;exitY=0.75;exitDx=0;exitDy=0;entryX=0;entryY=0.25;entryDx=0;entryDy=0;fillColor=#fff2cc;strokeColor=#d6b656;fontColor=#000000;fontFamily=Comic Sans MS;" parent="1" source="ZpYR9GBJYjBJ57970Wno-117" target="HZ-TQ83FuogPrPlQnaqr-119" edge="1">
                    <mxGeometry relative="1" as="geometry"/>
                </mxCell>
                <mxCell id="ZpYR9GBJYjBJ57970Wno-117" value="Introduction to Programming with Python" style="swimlane;fillColor=#fff2cc;strokeColor=#d6b656;fontColor=#000000;fontFamily=Comic Sans MS;" parent="1" vertex="1">
                    <mxGeometry x="-80" y="793.5" width="320" height="183" as="geometry"/>
                </mxCell>
                <mxCell id="ZpYR9GBJYjBJ57970Wno-118" value="Head First Python&lt;br&gt;&lt;b&gt;Paul Barry&lt;/b&gt;" style="rounded=0;whiteSpace=wrap;html=1;fillColor=#fff2cc;strokeColor=#d6b656;fontColor=#000000;fontFamily=Comic Sans MS;" parent="ZpYR9GBJYjBJ57970Wno-117" vertex="1">
                    <mxGeometry x="10" y="38" width="130" height="60" as="geometry"/>
                </mxCell>
                <mxCell id="ZpYR9GBJYjBJ57970Wno-119" value="&lt;div&gt;Think Python: How to think like a computer scientist&lt;/div&gt;&lt;div&gt;&lt;b&gt;Allen B. Downey&lt;/b&gt;&lt;/div&gt;" style="rounded=0;whiteSpace=wrap;html=1;fillColor=#fff2cc;strokeColor=#d6b656;fontColor=#000000;fontFamily=Comic Sans MS;" parent="ZpYR9GBJYjBJ57970Wno-117" vertex="1">
                    <mxGeometry x="82.5" y="113" width="165" height="60" as="geometry"/>
                </mxCell>
                <mxCell id="ZpYR9GBJYjBJ57970Wno-120" value="A Beginners Guide to Python 3 Programming&lt;br&gt;&lt;b&gt;John Hunt&lt;/b&gt;" style="rounded=0;whiteSpace=wrap;html=1;fillColor=#fff2cc;strokeColor=#d6b656;fontColor=#000000;fontFamily=Comic Sans MS;" parent="ZpYR9GBJYjBJ57970Wno-117" vertex="1">
                    <mxGeometry x="160" y="38" width="150" height="60" as="geometry"/>
                </mxCell>
                <mxCell id="HZ-TQ83FuogPrPlQnaqr-53" style="edgeStyle=orthogonalEdgeStyle;rounded=0;orthogonalLoop=1;jettySize=auto;html=1;exitX=0.5;exitY=1;exitDx=0;exitDy=0;entryX=0.5;entryY=0;entryDx=0;entryDy=0;fillColor=#e1d5e7;strokeColor=#9673a6;fontColor=#000000;fontFamily=Comic Sans MS;" parent="1" source="HZ-TQ83FuogPrPlQnaqr-1" target="HZ-TQ83FuogPrPlQnaqr-29" edge="1">
                    <mxGeometry relative="1" as="geometry"/>
                </mxCell>
                <mxCell id="HZ-TQ83FuogPrPlQnaqr-54" style="edgeStyle=orthogonalEdgeStyle;rounded=0;orthogonalLoop=1;jettySize=auto;html=1;exitX=0.25;exitY=1;exitDx=0;exitDy=0;fillColor=#e1d5e7;strokeColor=#9673a6;fontColor=#000000;fontFamily=Comic Sans MS;" parent="1" source="HZ-TQ83FuogPrPlQnaqr-1" target="HZ-TQ83FuogPrPlQnaqr-14" edge="1">
                    <mxGeometry relative="1" as="geometry"/>
                </mxCell>
                <mxCell id="HZ-TQ83FuogPrPlQnaqr-55" style="edgeStyle=orthogonalEdgeStyle;rounded=0;orthogonalLoop=1;jettySize=auto;html=1;exitX=0.75;exitY=1;exitDx=0;exitDy=0;entryX=0.5;entryY=0;entryDx=0;entryDy=0;fillColor=#e1d5e7;strokeColor=#9673a6;fontColor=#000000;fontFamily=Comic Sans MS;" parent="1" source="HZ-TQ83FuogPrPlQnaqr-1" target="HZ-TQ83FuogPrPlQnaqr-37" edge="1">
                    <mxGeometry relative="1" as="geometry"/>
                </mxCell>
                <mxCell id="HZ-TQ83FuogPrPlQnaqr-1" value="Introduction to the Philosophy of Mathematics and Logic" style="swimlane;fillColor=#e1d5e7;strokeColor=#9673a6;fontColor=#000000;fontFamily=Comic Sans MS;" parent="1" vertex="1">
                    <mxGeometry x="1155" y="280" width="650" height="279" as="geometry"/>
                </mxCell>
                <mxCell id="HZ-TQ83FuogPrPlQnaqr-2" value="Introduction to Logic and to the Methodology of the Deductive Sciences&lt;br&gt;&lt;b&gt;Alfred Tarski&lt;/b&gt;" style="rounded=0;whiteSpace=wrap;html=1;fillColor=#e1d5e7;strokeColor=#9673a6;fontColor=#000000;fontFamily=Comic Sans MS;" parent="HZ-TQ83FuogPrPlQnaqr-1" vertex="1">
                    <mxGeometry x="10" y="39" width="234" height="60" as="geometry"/>
                </mxCell>
                <mxCell id="HZ-TQ83FuogPrPlQnaqr-3" value="Introduction to Mathematical Philosophy&lt;br&gt;&lt;b&gt;Bertrand Russell&lt;/b&gt;" style="rounded=0;whiteSpace=wrap;html=1;fillColor=#e1d5e7;strokeColor=#9673a6;fontColor=#000000;fontFamily=Comic Sans MS;" parent="HZ-TQ83FuogPrPlQnaqr-1" vertex="1">
                    <mxGeometry x="10" y="200" width="185" height="60" as="geometry"/>
                </mxCell>
                <mxCell id="HZ-TQ83FuogPrPlQnaqr-4" value="Mathematical Thought: An Introduction to The Philosophy of Mathemematics&lt;br&gt;&lt;b&gt;Evert W. Beth&lt;/b&gt;" style="rounded=0;whiteSpace=wrap;html=1;fillColor=#e1d5e7;strokeColor=#9673a6;fontColor=#000000;fontFamily=Comic Sans MS;" parent="HZ-TQ83FuogPrPlQnaqr-1" vertex="1">
                    <mxGeometry x="196" y="120" width="239" height="60" as="geometry"/>
                </mxCell>
                <mxCell id="HZ-TQ83FuogPrPlQnaqr-5" value="On the Philosophy of Logic&lt;br&gt;&lt;b&gt;Jennifer Fisher&lt;/b&gt;" style="rounded=0;whiteSpace=wrap;html=1;fillColor=#e1d5e7;strokeColor=#9673a6;fontColor=#000000;fontFamily=Comic Sans MS;" parent="HZ-TQ83FuogPrPlQnaqr-1" vertex="1">
                    <mxGeometry x="270" y="39" width="175" height="60" as="geometry"/>
                </mxCell>
                <mxCell id="HZ-TQ83FuogPrPlQnaqr-6" value="Philosophy of Logics&lt;br&gt;&lt;b&gt;Susan Haack&lt;/b&gt;" style="rounded=0;whiteSpace=wrap;html=1;fillColor=#e1d5e7;strokeColor=#9673a6;fontColor=#000000;fontFamily=Comic Sans MS;" parent="HZ-TQ83FuogPrPlQnaqr-1" vertex="1">
                    <mxGeometry x="480" y="200" width="154" height="60" as="geometry"/>
                </mxCell>
                <mxCell id="HZ-TQ83FuogPrPlQnaqr-7" value="Philosophy of Mathematics&lt;br&gt;&lt;b&gt;James Robert Brown&lt;/b&gt;" style="rounded=0;whiteSpace=wrap;html=1;fillColor=#e1d5e7;strokeColor=#9673a6;fontColor=#000000;fontFamily=Comic Sans MS;" parent="HZ-TQ83FuogPrPlQnaqr-1" vertex="1">
                    <mxGeometry x="10" y="120" width="169" height="60" as="geometry"/>
                </mxCell>
                <mxCell id="HZ-TQ83FuogPrPlQnaqr-9" value="The Foundations of Arithmetic&lt;br&gt;&lt;b&gt;Gottlob Frege&lt;/b&gt;" style="rounded=0;whiteSpace=wrap;html=1;fillColor=#e1d5e7;strokeColor=#9673a6;fontColor=#000000;fontFamily=Comic Sans MS;" parent="HZ-TQ83FuogPrPlQnaqr-1" vertex="1">
                    <mxGeometry x="460" y="120" width="174" height="60" as="geometry"/>
                </mxCell>
                <mxCell id="HZ-TQ83FuogPrPlQnaqr-10" value="The Concept of Logical Consequence&lt;br&gt;&lt;b&gt;John Etchemendy&lt;/b&gt;" style="rounded=0;whiteSpace=wrap;html=1;fillColor=#e1d5e7;strokeColor=#9673a6;fontColor=#000000;fontFamily=Comic Sans MS;" parent="HZ-TQ83FuogPrPlQnaqr-1" vertex="1">
                    <mxGeometry x="470" y="39" width="164" height="60" as="geometry"/>
                </mxCell>
                <mxCell id="HZ-TQ83FuogPrPlQnaqr-12" value="The Concept of Logical Consequence: An Introduction to Philosophical Logic&lt;br&gt;&lt;b&gt;Matthew W. McKeon&lt;/b&gt;" style="rounded=0;whiteSpace=wrap;html=1;fillColor=#e1d5e7;strokeColor=#9673a6;fontColor=#000000;fontFamily=Comic Sans MS;" parent="HZ-TQ83FuogPrPlQnaqr-1" vertex="1">
                    <mxGeometry x="210" y="200" width="250" height="60" as="geometry"/>
                </mxCell>
                <mxCell id="HZ-TQ83FuogPrPlQnaqr-36" style="edgeStyle=orthogonalEdgeStyle;rounded=0;orthogonalLoop=1;jettySize=auto;html=1;exitX=1;exitY=0.5;exitDx=0;exitDy=0;entryX=0;entryY=0.5;entryDx=0;entryDy=0;fontColor=#000000;fontFamily=Comic Sans MS;" parent="1" source="HZ-TQ83FuogPrPlQnaqr-14" target="HZ-TQ83FuogPrPlQnaqr-29" edge="1">
                    <mxGeometry relative="1" as="geometry"/>
                </mxCell>
                <mxCell id="XHwMdBdWKg2Phqc04OuS-63" style="edgeStyle=orthogonalEdgeStyle;rounded=0;orthogonalLoop=1;jettySize=auto;html=1;exitX=0.25;exitY=1;exitDx=0;exitDy=0;entryX=0.5;entryY=0;entryDx=0;entryDy=0;fontColor=#000000;fontFamily=Comic Sans MS;" parent="1" source="HZ-TQ83FuogPrPlQnaqr-14" target="XHwMdBdWKg2Phqc04OuS-54" edge="1">
                    <mxGeometry relative="1" as="geometry"/>
                </mxCell>
                <mxCell id="XHwMdBdWKg2Phqc04OuS-71" style="edgeStyle=orthogonalEdgeStyle;rounded=0;orthogonalLoop=1;jettySize=auto;html=1;exitX=0.75;exitY=1;exitDx=0;exitDy=0;entryX=0.5;entryY=0;entryDx=0;entryDy=0;fontColor=#000000;fontFamily=Comic Sans MS;" parent="1" source="HZ-TQ83FuogPrPlQnaqr-14" target="XHwMdBdWKg2Phqc04OuS-64" edge="1">
                    <mxGeometry relative="1" as="geometry"/>
                </mxCell>
                <mxCell id="HZ-TQ83FuogPrPlQnaqr-14" value="Introduction to Axiomatic Set Theory" style="swimlane;fillColor=#dae8fc;strokeColor=#6c8ebf;fontColor=#000000;fontFamily=Comic Sans MS;" parent="1" vertex="1">
                    <mxGeometry x="460" y="685" width="600" height="190" as="geometry"/>
                </mxCell>
                <mxCell id="HZ-TQ83FuogPrPlQnaqr-15" value="Classic Set Theory&lt;br&gt;&lt;b&gt;Derek Goldrei&lt;/b&gt;" style="rounded=0;whiteSpace=wrap;html=1;fillColor=#dae8fc;strokeColor=#6c8ebf;fontColor=#000000;fontFamily=Comic Sans MS;" parent="HZ-TQ83FuogPrPlQnaqr-14" vertex="1">
                    <mxGeometry x="115" y="40" width="170" height="60" as="geometry"/>
                </mxCell>
                <mxCell id="HZ-TQ83FuogPrPlQnaqr-16" value="Elements of Set Theory&lt;br&gt;&lt;b&gt;Herbert Enderton&lt;/b&gt;" style="rounded=0;whiteSpace=wrap;html=1;fillColor=#dae8fc;strokeColor=#6c8ebf;fontColor=#000000;fontFamily=Comic Sans MS;" parent="HZ-TQ83FuogPrPlQnaqr-14" vertex="1">
                    <mxGeometry x="20" y="110" width="170" height="60" as="geometry"/>
                </mxCell>
                <mxCell id="HZ-TQ83FuogPrPlQnaqr-17" value="Introduction to Set Theory&lt;br&gt;&lt;b&gt;Karel Hrbacek, Thomas Jech&lt;/b&gt;" style="rounded=0;whiteSpace=wrap;html=1;fillColor=#dae8fc;strokeColor=#6c8ebf;fontColor=#000000;fontFamily=Comic Sans MS;" parent="HZ-TQ83FuogPrPlQnaqr-14" vertex="1">
                    <mxGeometry x="296.5" y="40" width="183.5" height="60" as="geometry"/>
                </mxCell>
                <mxCell id="HZ-TQ83FuogPrPlQnaqr-18" value="Foundations of Set Theory&lt;br&gt;&lt;b&gt;A.A. Fraenkel. Y. Bar-Hillel, A. Levy&lt;/b&gt;" style="rounded=0;whiteSpace=wrap;html=1;fillColor=#dae8fc;strokeColor=#6c8ebf;fontColor=#000000;fontFamily=Comic Sans MS;" parent="HZ-TQ83FuogPrPlQnaqr-14" vertex="1">
                    <mxGeometry x="200" y="110" width="170" height="60" as="geometry"/>
                </mxCell>
                <mxCell id="HZ-TQ83FuogPrPlQnaqr-19" value="A First Course in Mathematical Logic and Set Theory&lt;br&gt;&lt;b&gt;Michael L. O'Leary&lt;/b&gt;" style="rounded=0;whiteSpace=wrap;html=1;fillColor=#dae8fc;strokeColor=#6c8ebf;fontColor=#000000;fontFamily=Comic Sans MS;" parent="HZ-TQ83FuogPrPlQnaqr-14" vertex="1">
                    <mxGeometry x="383" y="110" width="190" height="60" as="geometry"/>
                </mxCell>
                <mxCell id="HZ-TQ83FuogPrPlQnaqr-29" value="Introduction to Mathematical Logic and Model Theory" style="swimlane;fillColor=#dae8fc;strokeColor=#6c8ebf;fontColor=#000000;fontFamily=Comic Sans MS;" parent="1" vertex="1">
                    <mxGeometry x="1180" y="680" width="600" height="200" as="geometry"/>
                </mxCell>
                <mxCell id="HZ-TQ83FuogPrPlQnaqr-30" value="Mathematical Logic&lt;br&gt;&lt;b&gt;Ian Chiswell, Wilfrid Hodges&lt;/b&gt;" style="rounded=0;whiteSpace=wrap;html=1;fillColor=#dae8fc;strokeColor=#6c8ebf;fontColor=#000000;fontFamily=Comic Sans MS;" parent="HZ-TQ83FuogPrPlQnaqr-29" vertex="1">
                    <mxGeometry x="15" y="40" width="180" height="60" as="geometry"/>
                </mxCell>
                <mxCell id="HZ-TQ83FuogPrPlQnaqr-31" value="Propositional and Predicate Calculus&lt;br&gt;&lt;b&gt;Derek Godrei&lt;/b&gt;" style="rounded=0;whiteSpace=wrap;html=1;fillColor=#dae8fc;strokeColor=#6c8ebf;fontColor=#000000;fontFamily=Comic Sans MS;" parent="HZ-TQ83FuogPrPlQnaqr-29" vertex="1">
                    <mxGeometry x="15" y="120" width="183" height="60" as="geometry"/>
                </mxCell>
                <mxCell id="HZ-TQ83FuogPrPlQnaqr-32" value="A Mathematical Introduction to Logic&lt;br&gt;&lt;b&gt;Herbert Enderton&lt;/b&gt;" style="rounded=0;whiteSpace=wrap;html=1;fillColor=#dae8fc;strokeColor=#6c8ebf;fontColor=#000000;fontFamily=Comic Sans MS;" parent="HZ-TQ83FuogPrPlQnaqr-29" vertex="1">
                    <mxGeometry x="210" y="40" width="183" height="60" as="geometry"/>
                </mxCell>
                <mxCell id="HZ-TQ83FuogPrPlQnaqr-33" value="A Friendly Introduction to Mathematical Logic&lt;br&gt;&lt;b&gt;Christopher C. Leary&lt;/b&gt;" style="rounded=0;whiteSpace=wrap;html=1;fillColor=#dae8fc;strokeColor=#6c8ebf;fontColor=#000000;fontFamily=Comic Sans MS;" parent="HZ-TQ83FuogPrPlQnaqr-29" vertex="1">
                    <mxGeometry x="213" y="120" width="180" height="60" as="geometry"/>
                </mxCell>
                <mxCell id="HZ-TQ83FuogPrPlQnaqr-34" value="A First Course in Logic&lt;br&gt;&lt;b&gt;Shawn Hedman&lt;/b&gt;" style="rounded=0;whiteSpace=wrap;html=1;fillColor=#dae8fc;strokeColor=#6c8ebf;fontColor=#000000;fontFamily=Comic Sans MS;" parent="HZ-TQ83FuogPrPlQnaqr-29" vertex="1">
                    <mxGeometry x="410" y="40" width="180" height="60" as="geometry"/>
                </mxCell>
                <mxCell id="HZ-TQ83FuogPrPlQnaqr-35" value="Introduction to Mathematical Logic&lt;br&gt;&lt;b&gt;Elliott Mendelson&lt;/b&gt;" style="rounded=0;whiteSpace=wrap;html=1;fillColor=#dae8fc;strokeColor=#6c8ebf;fontColor=#000000;fontFamily=Comic Sans MS;" parent="HZ-TQ83FuogPrPlQnaqr-29" vertex="1">
                    <mxGeometry x="415" y="120" width="175" height="60" as="geometry"/>
                </mxCell>
                <mxCell id="HZ-TQ83FuogPrPlQnaqr-37" value="Introduction to the Theory of Computation" style="swimlane;fillColor=#dae8fc;strokeColor=#6c8ebf;startSize=23;fontColor=#000000;fontFamily=Comic Sans MS;" parent="1" vertex="1">
                    <mxGeometry x="1900" y="680" width="360" height="200" as="geometry"/>
                </mxCell>
                <mxCell id="HZ-TQ83FuogPrPlQnaqr-38" value="&lt;span&gt;Introduction to the Theory of Computation&lt;br&gt;&lt;b&gt;Michael Sipser&lt;/b&gt;&lt;/span&gt;" style="rounded=0;whiteSpace=wrap;html=1;fillColor=#dae8fc;strokeColor=#6c8ebf;fontColor=#000000;fontFamily=Comic Sans MS;" parent="HZ-TQ83FuogPrPlQnaqr-37" vertex="1">
                    <mxGeometry x="14" y="40" width="176" height="60" as="geometry"/>
                </mxCell>
                <mxCell id="HZ-TQ83FuogPrPlQnaqr-39" value="&lt;span&gt;Introduction to Languages and the Theory of Computation&lt;br&gt;&lt;b&gt;John C. Martin&lt;/b&gt;&lt;/span&gt;" style="rounded=0;whiteSpace=wrap;html=1;fillColor=#dae8fc;strokeColor=#6c8ebf;fontColor=#000000;fontFamily=Comic Sans MS;" parent="HZ-TQ83FuogPrPlQnaqr-37" vertex="1">
                    <mxGeometry x="68.75" y="120" width="222.5" height="60" as="geometry"/>
                </mxCell>
                <mxCell id="HZ-TQ83FuogPrPlQnaqr-40" value="Computability Theory &lt;b&gt;Herbert Enderton&lt;/b&gt;" style="rounded=0;whiteSpace=wrap;html=1;fillColor=#dae8fc;strokeColor=#6c8ebf;fontColor=#000000;fontFamily=Comic Sans MS;" parent="HZ-TQ83FuogPrPlQnaqr-37" vertex="1">
                    <mxGeometry x="200" y="40" width="143" height="60" as="geometry"/>
                </mxCell>
                <mxCell id="HZ-TQ83FuogPrPlQnaqr-45" value="" style="endArrow=classic;startArrow=classic;html=1;entryX=0;entryY=0.5;entryDx=0;entryDy=0;exitX=1;exitY=0.5;exitDx=0;exitDy=0;fontColor=#000000;fontFamily=Comic Sans MS;" parent="1" source="HZ-TQ83FuogPrPlQnaqr-29" target="HZ-TQ83FuogPrPlQnaqr-37" edge="1">
                    <mxGeometry width="50" height="50" relative="1" as="geometry">
                        <mxPoint x="1640" y="900" as="sourcePoint"/>
                        <mxPoint x="1690" y="850" as="targetPoint"/>
                    </mxGeometry>
                </mxCell>
                <mxCell id="HZ-TQ83FuogPrPlQnaqr-61" style="edgeStyle=orthogonalEdgeStyle;rounded=0;orthogonalLoop=1;jettySize=auto;html=1;entryX=0.5;entryY=0;entryDx=0;entryDy=0;fillColor=#e1d5e7;strokeColor=#9673a6;fontColor=#000000;fontFamily=Comic Sans MS;" parent="1" source="HZ-TQ83FuogPrPlQnaqr-56" target="HZ-TQ83FuogPrPlQnaqr-1" edge="1">
                    <mxGeometry relative="1" as="geometry"/>
                </mxCell>
                <mxCell id="HZ-TQ83FuogPrPlQnaqr-56" value="Introduction to the Philosophy of Language" style="swimlane;fillColor=#e1d5e7;strokeColor=#9673a6;startSize=23;fontColor=#000000;fontFamily=Comic Sans MS;" parent="1" vertex="1">
                    <mxGeometry x="1304.5" y="-40" width="351" height="200" as="geometry"/>
                </mxCell>
                <mxCell id="HZ-TQ83FuogPrPlQnaqr-57" value="Philosophy of Language&lt;br&gt;&lt;b&gt;Alexander Miller&lt;/b&gt;" style="rounded=0;whiteSpace=wrap;html=1;fillColor=#e1d5e7;strokeColor=#9673a6;fontColor=#000000;fontFamily=Comic Sans MS;" parent="HZ-TQ83FuogPrPlQnaqr-56" vertex="1">
                    <mxGeometry x="15.5" y="40" width="146" height="60" as="geometry"/>
                </mxCell>
                <mxCell id="HZ-TQ83FuogPrPlQnaqr-58" value="Philosophy of Language&lt;br&gt;&lt;b&gt;William G. Lycan&lt;/b&gt;" style="rounded=0;whiteSpace=wrap;html=1;fillColor=#e1d5e7;strokeColor=#9673a6;fontColor=#000000;fontFamily=Comic Sans MS;" parent="HZ-TQ83FuogPrPlQnaqr-56" vertex="1">
                    <mxGeometry x="15.5" y="120" width="146" height="60" as="geometry"/>
                </mxCell>
                <mxCell id="HZ-TQ83FuogPrPlQnaqr-59" value="An Introduction to the Philosophy of Language&lt;br&gt;&lt;b&gt;Michael Morris&lt;/b&gt;" style="rounded=0;whiteSpace=wrap;html=1;fillColor=#e1d5e7;strokeColor=#9673a6;fontColor=#000000;fontFamily=Comic Sans MS;" parent="HZ-TQ83FuogPrPlQnaqr-56" vertex="1">
                    <mxGeometry x="178" y="40" width="158.25" height="60" as="geometry"/>
                </mxCell>
                <mxCell id="HZ-TQ83FuogPrPlQnaqr-60" value="Philosophy of Language An Introduction&lt;br&gt;&lt;b&gt;Chris Daly&lt;/b&gt;" style="rounded=0;whiteSpace=wrap;html=1;fillColor=#e1d5e7;strokeColor=#9673a6;fontColor=#000000;fontFamily=Comic Sans MS;" parent="HZ-TQ83FuogPrPlQnaqr-56" vertex="1">
                    <mxGeometry x="171.75" y="120" width="164.5" height="60" as="geometry"/>
                </mxCell>
                <mxCell id="HZ-TQ83FuogPrPlQnaqr-109" style="edgeStyle=orthogonalEdgeStyle;rounded=0;orthogonalLoop=1;jettySize=auto;html=1;exitX=0.5;exitY=1;exitDx=0;exitDy=0;entryX=0.5;entryY=0;entryDx=0;entryDy=0;fontColor=#000000;fontFamily=Comic Sans MS;" parent="1" source="HZ-TQ83FuogPrPlQnaqr-63" target="HZ-TQ83FuogPrPlQnaqr-100" edge="1">
                    <mxGeometry relative="1" as="geometry"/>
                </mxCell>
                <mxCell id="HZ-TQ83FuogPrPlQnaqr-126" style="edgeStyle=orthogonalEdgeStyle;rounded=0;orthogonalLoop=1;jettySize=auto;html=1;exitX=0.75;exitY=1;exitDx=0;exitDy=0;entryX=0.5;entryY=0;entryDx=0;entryDy=0;fontColor=#000000;fontFamily=Comic Sans MS;" parent="1" source="HZ-TQ83FuogPrPlQnaqr-63" target="HZ-TQ83FuogPrPlQnaqr-119" edge="1">
                    <mxGeometry relative="1" as="geometry"/>
                </mxCell>
                <mxCell id="HZ-TQ83FuogPrPlQnaqr-170" style="edgeStyle=orthogonalEdgeStyle;rounded=0;orthogonalLoop=1;jettySize=auto;html=1;exitX=0;exitY=0.5;exitDx=0;exitDy=0;entryX=0;entryY=0.5;entryDx=0;entryDy=0;fontColor=#000000;fontFamily=Comic Sans MS;" parent="1" source="HZ-TQ83FuogPrPlQnaqr-63" target="HZ-TQ83FuogPrPlQnaqr-138" edge="1">
                    <mxGeometry relative="1" as="geometry">
                        <Array as="points">
                            <mxPoint x="-900" y="1180"/>
                            <mxPoint x="-900" y="1820"/>
                        </Array>
                    </mxGeometry>
                </mxCell>
                <mxCell id="HZ-TQ83FuogPrPlQnaqr-63" value="Introduction to Real Analysis" style="swimlane;fillColor=#dae8fc;strokeColor=#6c8ebf;fontColor=#000000;fontFamily=Comic Sans MS;" parent="1" vertex="1">
                    <mxGeometry x="-838.5" y="1080" width="597" height="200" as="geometry"/>
                </mxCell>
                <mxCell id="HZ-TQ83FuogPrPlQnaqr-64" value="Introduction to Real Analysis&lt;br&gt;&lt;b&gt;Robert G. Bartle, Donald R. Sherbert&lt;/b&gt;" style="rounded=0;whiteSpace=wrap;html=1;fillColor=#dae8fc;strokeColor=#6c8ebf;fontColor=#000000;fontFamily=Comic Sans MS;" parent="HZ-TQ83FuogPrPlQnaqr-63" vertex="1">
                    <mxGeometry x="114.5" y="40" width="180" height="60" as="geometry"/>
                </mxCell>
                <mxCell id="HZ-TQ83FuogPrPlQnaqr-65" value="How to Think About Analysis&lt;br&gt;&lt;b&gt;Lara Alcock&lt;/b&gt;" style="rounded=0;whiteSpace=wrap;html=1;fillColor=#dae8fc;strokeColor=#6c8ebf;fontColor=#000000;fontFamily=Comic Sans MS;" parent="HZ-TQ83FuogPrPlQnaqr-63" vertex="1">
                    <mxGeometry x="23.5" y="120" width="170" height="60" as="geometry"/>
                </mxCell>
                <mxCell id="HZ-TQ83FuogPrPlQnaqr-66" value="Introduction to Real Analysis&lt;br&gt;&lt;b&gt;William F. Trench&lt;/b&gt;" style="rounded=0;whiteSpace=wrap;html=1;fillColor=#dae8fc;strokeColor=#6c8ebf;fontColor=#000000;fontFamily=Comic Sans MS;" parent="HZ-TQ83FuogPrPlQnaqr-63" vertex="1">
                    <mxGeometry x="310" y="40" width="170" height="60" as="geometry"/>
                </mxCell>
                <mxCell id="HZ-TQ83FuogPrPlQnaqr-67" value="From Calculus to Analysis&lt;br&gt;&lt;b&gt;Steen Pedersen&lt;/b&gt;" style="rounded=0;whiteSpace=wrap;html=1;fillColor=#dae8fc;strokeColor=#6c8ebf;fontColor=#000000;fontFamily=Comic Sans MS;" parent="HZ-TQ83FuogPrPlQnaqr-63" vertex="1">
                    <mxGeometry x="218.5" y="120" width="160" height="60" as="geometry"/>
                </mxCell>
                <mxCell id="HZ-TQ83FuogPrPlQnaqr-68" value="Writing Proofs in Analysis&lt;br&gt;&lt;b&gt;Jonathan M. Kane&lt;/b&gt;" style="rounded=0;whiteSpace=wrap;html=1;fillColor=#dae8fc;strokeColor=#6c8ebf;fontColor=#000000;fontFamily=Comic Sans MS;" parent="HZ-TQ83FuogPrPlQnaqr-63" vertex="1">
                    <mxGeometry x="408.5" y="120" width="170" height="60" as="geometry"/>
                </mxCell>
                <mxCell id="HZ-TQ83FuogPrPlQnaqr-115" style="edgeStyle=orthogonalEdgeStyle;rounded=0;orthogonalLoop=1;jettySize=auto;html=1;exitX=0.5;exitY=1;exitDx=0;exitDy=0;entryX=0.5;entryY=0;entryDx=0;entryDy=0;fontColor=#000000;fontFamily=Comic Sans MS;" parent="1" source="HZ-TQ83FuogPrPlQnaqr-70" target="HZ-TQ83FuogPrPlQnaqr-110" edge="1">
                    <mxGeometry relative="1" as="geometry"/>
                </mxCell>
                <mxCell id="HZ-TQ83FuogPrPlQnaqr-70" value="Introduction to Number Theory" style="swimlane;fillColor=#dae8fc;strokeColor=#6c8ebf;fontColor=#000000;fontFamily=Comic Sans MS;" parent="1" vertex="1">
                    <mxGeometry x="-1360" y="1080" width="397" height="200" as="geometry"/>
                </mxCell>
                <mxCell id="HZ-TQ83FuogPrPlQnaqr-71" value="Elementary Number Theory&lt;br&gt;&lt;b&gt;David Burton&lt;/b&gt;" style="rounded=0;whiteSpace=wrap;html=1;fillColor=#dae8fc;strokeColor=#6c8ebf;fontColor=#000000;fontFamily=Comic Sans MS;" parent="HZ-TQ83FuogPrPlQnaqr-70" vertex="1">
                    <mxGeometry x="109" y="40" width="165" height="60" as="geometry"/>
                </mxCell>
                <mxCell id="HZ-TQ83FuogPrPlQnaqr-72" value="Elementary Number Theory with Applications&lt;br&gt;&lt;b&gt;Thomas Koshy&lt;/b&gt;" style="rounded=0;whiteSpace=wrap;html=1;fillColor=#dae8fc;strokeColor=#6c8ebf;fontColor=#000000;fontFamily=Comic Sans MS;" parent="HZ-TQ83FuogPrPlQnaqr-70" vertex="1">
                    <mxGeometry x="20" y="120" width="165" height="60" as="geometry"/>
                </mxCell>
                <mxCell id="HZ-TQ83FuogPrPlQnaqr-73" value="&lt;div&gt;Elementary Number Theory&lt;/div&gt;&lt;div&gt;&lt;b&gt;Kenneth H. Rosen&lt;/b&gt;&lt;/div&gt;" style="rounded=0;whiteSpace=wrap;html=1;fillColor=#dae8fc;strokeColor=#6c8ebf;fontColor=#000000;fontFamily=Comic Sans MS;" parent="HZ-TQ83FuogPrPlQnaqr-70" vertex="1">
                    <mxGeometry x="200" y="120" width="170" height="61" as="geometry"/>
                </mxCell>
                <mxCell id="XHwMdBdWKg2Phqc04OuS-83" style="edgeStyle=orthogonalEdgeStyle;rounded=0;orthogonalLoop=1;jettySize=auto;html=1;exitX=0.75;exitY=1;exitDx=0;exitDy=0;entryX=0.5;entryY=0;entryDx=0;entryDy=0;fontColor=#000000;fontFamily=Comic Sans MS;" parent="1" source="HZ-TQ83FuogPrPlQnaqr-79" target="XHwMdBdWKg2Phqc04OuS-78" edge="1">
                    <mxGeometry relative="1" as="geometry"/>
                </mxCell>
                <mxCell id="HZ-TQ83FuogPrPlQnaqr-79" value="Introduction to Combinatorics" style="swimlane;fillColor=#dae8fc;strokeColor=#6c8ebf;fontColor=#000000;fontFamily=Comic Sans MS;" parent="1" vertex="1">
                    <mxGeometry x="-119.99714285714276" y="1080" width="420" height="210" as="geometry"/>
                </mxCell>
                <mxCell id="HZ-TQ83FuogPrPlQnaqr-80" value="Combinatorial Reasoning: An Introduction to the Art of Counting&lt;br&gt;&lt;b&gt;Duane DeTemple, William Webb&lt;/b&gt;" style="rounded=0;whiteSpace=wrap;html=1;fillColor=#dae8fc;strokeColor=#6c8ebf;fontColor=#000000;fontFamily=Comic Sans MS;" parent="HZ-TQ83FuogPrPlQnaqr-79" vertex="1">
                    <mxGeometry x="20" y="45" width="205" height="70" as="geometry"/>
                </mxCell>
                <mxCell id="HZ-TQ83FuogPrPlQnaqr-81" value="Combinatorics: An Introduction&lt;br&gt;&lt;b&gt;Theodore G. Faticoni&lt;/b&gt;" style="rounded=0;whiteSpace=wrap;html=1;fillColor=#dae8fc;strokeColor=#6c8ebf;fontColor=#000000;fontFamily=Comic Sans MS;" parent="HZ-TQ83FuogPrPlQnaqr-79" vertex="1">
                    <mxGeometry x="20" y="130" width="156" height="60" as="geometry"/>
                </mxCell>
                <mxCell id="HZ-TQ83FuogPrPlQnaqr-82" value="How to Count: An Introduction to Combinatorics and Its Applications&lt;br&gt;&lt;b&gt;Robert A. Beeler&lt;/b&gt;" style="rounded=0;whiteSpace=wrap;html=1;fillColor=#dae8fc;strokeColor=#6c8ebf;fontColor=#000000;fontFamily=Comic Sans MS;" parent="HZ-TQ83FuogPrPlQnaqr-79" vertex="1">
                    <mxGeometry x="190" y="130" width="215" height="60" as="geometry"/>
                </mxCell>
                <mxCell id="HZ-TQ83FuogPrPlQnaqr-83" value="Introductory Combinatorics&lt;br&gt;&lt;b&gt;Richard A. Brualdi&lt;/b&gt;" style="rounded=0;whiteSpace=wrap;html=1;fillColor=#dae8fc;strokeColor=#6c8ebf;fontColor=#000000;fontFamily=Comic Sans MS;" parent="HZ-TQ83FuogPrPlQnaqr-79" vertex="1">
                    <mxGeometry x="240" y="50" width="160" height="60" as="geometry"/>
                </mxCell>
                <mxCell id="HZ-TQ83FuogPrPlQnaqr-85" value="Euclidean and Non-Euclidean Geometry" style="swimlane;fillColor=#dae8fc;strokeColor=#6c8ebf;startSize=23;fontColor=#000000;fontFamily=Comic Sans MS;" parent="1" vertex="1">
                    <mxGeometry x="-2030" y="639" width="548" height="402.5" as="geometry"/>
                </mxCell>
                <mxCell id="HZ-TQ83FuogPrPlQnaqr-86" value="Foundations of Euclidean and Non-Euclidean Geometry&lt;br&gt;&lt;b&gt;Ellery B. Golos&lt;/b&gt;" style="rounded=0;whiteSpace=wrap;html=1;fillColor=#dae8fc;strokeColor=#6c8ebf;fontColor=#000000;fontFamily=Comic Sans MS;" parent="HZ-TQ83FuogPrPlQnaqr-85" vertex="1">
                    <mxGeometry x="103.5" y="40" width="180" height="60" as="geometry"/>
                </mxCell>
                <mxCell id="HZ-TQ83FuogPrPlQnaqr-87" value="Foundations of Geometry&lt;br&gt;&lt;b&gt;Gerard A. Venema&lt;/b&gt;" style="rounded=0;whiteSpace=wrap;html=1;fillColor=#dae8fc;strokeColor=#6c8ebf;fontColor=#000000;fontFamily=Comic Sans MS;" parent="HZ-TQ83FuogPrPlQnaqr-85" vertex="1">
                    <mxGeometry x="309.5" y="40" width="135" height="60" as="geometry"/>
                </mxCell>
                <mxCell id="HZ-TQ83FuogPrPlQnaqr-88" value="Euclidean and Non-Euclidean Geometry&lt;br&gt;&lt;b&gt;Marvin Jay Greenberg&lt;/b&gt;" style="rounded=0;whiteSpace=wrap;html=1;fillColor=#dae8fc;strokeColor=#6c8ebf;fontColor=#000000;fontFamily=Comic Sans MS;" parent="HZ-TQ83FuogPrPlQnaqr-85" vertex="1">
                    <mxGeometry x="15" y="115" width="180" height="60" as="geometry"/>
                </mxCell>
                <mxCell id="HZ-TQ83FuogPrPlQnaqr-91" value="Modern Geometries&lt;br&gt;&lt;b&gt;John R. Smart&lt;/b&gt;" style="rounded=0;whiteSpace=wrap;html=1;fillColor=#dae8fc;strokeColor=#6c8ebf;fontColor=#000000;fontFamily=Comic Sans MS;" parent="HZ-TQ83FuogPrPlQnaqr-85" vertex="1">
                    <mxGeometry x="395" y="115" width="135" height="60" as="geometry"/>
                </mxCell>
                <mxCell id="HZ-TQ83FuogPrPlQnaqr-95" value="The Four Pillars of Geometry&lt;br&gt;&lt;b&gt;John Stillwell&lt;/b&gt;" style="rounded=0;whiteSpace=wrap;html=1;fillColor=#dae8fc;strokeColor=#6c8ebf;fontColor=#000000;fontFamily=Comic Sans MS;" parent="HZ-TQ83FuogPrPlQnaqr-85" vertex="1">
                    <mxGeometry x="217" y="115" width="150" height="60" as="geometry"/>
                </mxCell>
                <mxCell id="XHwMdBdWKg2Phqc04OuS-50" value="A Modern View of Geometry&lt;br&gt;&lt;b&gt;Leonard M. Blumenthal&lt;/b&gt;" style="rounded=0;whiteSpace=wrap;html=1;fillColor=#dae8fc;strokeColor=#6c8ebf;fontColor=#000000;fontFamily=Comic Sans MS;" parent="HZ-TQ83FuogPrPlQnaqr-85" vertex="1">
                    <mxGeometry x="15" y="190" width="180" height="60" as="geometry"/>
                </mxCell>
                <mxCell id="XHwMdBdWKg2Phqc04OuS-51" value="Classical Geometry&lt;br&gt;&lt;b&gt;I. E. L., J. E. L., A. C. F. L., G. W. T.&lt;/b&gt;" style="rounded=0;whiteSpace=wrap;html=1;fillColor=#dae8fc;strokeColor=#6c8ebf;fontColor=#000000;fontFamily=Comic Sans MS;" parent="HZ-TQ83FuogPrPlQnaqr-85" vertex="1">
                    <mxGeometry x="211.75" y="190" width="160.5" height="60" as="geometry"/>
                </mxCell>
                <mxCell id="XHwMdBdWKg2Phqc04OuS-52" value="Euclidean Geometry&lt;br&gt;&lt;b&gt;M. Solomonovich&lt;/b&gt;" style="rounded=0;whiteSpace=wrap;html=1;fillColor=#dae8fc;strokeColor=#6c8ebf;fontColor=#000000;fontFamily=Comic Sans MS;" parent="HZ-TQ83FuogPrPlQnaqr-85" vertex="1">
                    <mxGeometry x="390" y="190" width="141" height="60" as="geometry"/>
                </mxCell>
                <mxCell id="HZ-TQ83FuogPrPlQnaqr-89" value="Geometry&lt;br&gt;&lt;b&gt;D. A. Brannan,&amp;nbsp;M. F. Esplen, J. J. Gray&lt;/b&gt;" style="rounded=0;whiteSpace=wrap;html=1;fillColor=#dae8fc;strokeColor=#6c8ebf;fontColor=#000000;fontFamily=Comic Sans MS;" parent="HZ-TQ83FuogPrPlQnaqr-85" vertex="1">
                    <mxGeometry x="213.5" y="260" width="145" height="60" as="geometry"/>
                </mxCell>
                <mxCell id="HZ-TQ83FuogPrPlQnaqr-90" value="Introduction To Non-Euclidean Geometry&lt;br&gt;&lt;b&gt;Harold E. Wolfe&lt;/b&gt;" style="rounded=0;whiteSpace=wrap;html=1;fillColor=#dae8fc;strokeColor=#6c8ebf;fontColor=#000000;fontFamily=Comic Sans MS;" parent="HZ-TQ83FuogPrPlQnaqr-85" vertex="1">
                    <mxGeometry x="15" y="260" width="180" height="60" as="geometry"/>
                </mxCell>
                <mxCell id="HZ-TQ83FuogPrPlQnaqr-92" value="Modern Geometry with Applications&lt;br&gt;&lt;b&gt;George A. Jennings&lt;/b&gt;" style="rounded=0;whiteSpace=wrap;html=1;fillColor=#dae8fc;strokeColor=#6c8ebf;fontColor=#000000;fontFamily=Comic Sans MS;" parent="HZ-TQ83FuogPrPlQnaqr-85" vertex="1">
                    <mxGeometry x="380" y="260" width="150" height="60" as="geometry"/>
                </mxCell>
                <mxCell id="HZ-TQ83FuogPrPlQnaqr-93" value="Projective Geometry&lt;br&gt;&lt;b&gt;H. S. M. Coxeter&lt;/b&gt;" style="rounded=0;whiteSpace=wrap;html=1;fillColor=#dae8fc;strokeColor=#6c8ebf;fontColor=#000000;fontFamily=Comic Sans MS;" parent="HZ-TQ83FuogPrPlQnaqr-85" vertex="1">
                    <mxGeometry x="217" y="332" width="133" height="60" as="geometry"/>
                </mxCell>
                <mxCell id="HZ-TQ83FuogPrPlQnaqr-94" value="Transformation Geometry&lt;br&gt;&lt;b&gt;George E. Martin&lt;/b&gt;" style="rounded=0;whiteSpace=wrap;html=1;fillColor=#dae8fc;strokeColor=#6c8ebf;fontColor=#000000;fontFamily=Comic Sans MS;" parent="HZ-TQ83FuogPrPlQnaqr-85" vertex="1">
                    <mxGeometry x="379" y="332" width="151" height="60" as="geometry"/>
                </mxCell>
                <mxCell id="HZ-TQ83FuogPrPlQnaqr-96" value="The Foundations of Geoemtry and the Non-Euclidean Plane&lt;br&gt;&lt;b&gt;George E. Martin&lt;/b&gt;" style="rounded=0;whiteSpace=wrap;html=1;fillColor=#dae8fc;strokeColor=#6c8ebf;fontColor=#000000;fontFamily=Comic Sans MS;" parent="HZ-TQ83FuogPrPlQnaqr-85" vertex="1">
                    <mxGeometry x="15" y="332" width="180" height="60" as="geometry"/>
                </mxCell>
                <mxCell id="HZ-TQ83FuogPrPlQnaqr-171" style="edgeStyle=orthogonalEdgeStyle;rounded=0;orthogonalLoop=1;jettySize=auto;html=1;exitX=0;exitY=0.75;exitDx=0;exitDy=0;entryX=0.25;entryY=0;entryDx=0;entryDy=0;fontColor=#000000;fontFamily=Comic Sans MS;" parent="1" source="HZ-TQ83FuogPrPlQnaqr-100" target="HZ-TQ83FuogPrPlQnaqr-153" edge="1">
                    <mxGeometry relative="1" as="geometry"/>
                </mxCell>
                <mxCell id="XHwMdBdWKg2Phqc04OuS-23" style="edgeStyle=orthogonalEdgeStyle;rounded=0;orthogonalLoop=1;jettySize=auto;html=1;exitX=0;exitY=0.5;exitDx=0;exitDy=0;entryX=1;entryY=0.5;entryDx=0;entryDy=0;fontColor=#000000;fontFamily=Comic Sans MS;" parent="1" source="HZ-TQ83FuogPrPlQnaqr-100" target="XHwMdBdWKg2Phqc04OuS-15" edge="1">
                    <mxGeometry relative="1" as="geometry">
                        <Array as="points">
                            <mxPoint x="-960" y="1500"/>
                            <mxPoint x="-960" y="2205"/>
                        </Array>
                    </mxGeometry>
                </mxCell>
                <mxCell id="XHwMdBdWKg2Phqc04OuS-174" style="edgeStyle=orthogonalEdgeStyle;rounded=0;orthogonalLoop=1;jettySize=auto;html=1;exitX=0.25;exitY=0;exitDx=0;exitDy=0;entryX=0.5;entryY=0;entryDx=0;entryDy=0;fontColor=#000000;fontFamily=Comic Sans MS;" parent="1" source="HZ-TQ83FuogPrPlQnaqr-100" target="XHwMdBdWKg2Phqc04OuS-162" edge="1">
                    <mxGeometry relative="1" as="geometry">
                        <Array as="points">
                            <mxPoint x="-670" y="1320"/>
                            <mxPoint x="-2149" y="1320"/>
                        </Array>
                    </mxGeometry>
                </mxCell>
                <mxCell id="HZ-TQ83FuogPrPlQnaqr-100" value="Introduction to General Topology" style="swimlane;fillColor=#dae8fc;strokeColor=#6c8ebf;fontColor=#000000;fontFamily=Comic Sans MS;" parent="1" vertex="1">
                    <mxGeometry x="-800" y="1400" width="520" height="200" as="geometry"/>
                </mxCell>
                <mxCell id="HZ-TQ83FuogPrPlQnaqr-101" value="Topology&lt;br&gt;&lt;b&gt;James Munkres&lt;/b&gt;" style="rounded=0;whiteSpace=wrap;html=1;fillColor=#dae8fc;strokeColor=#6c8ebf;fontColor=#000000;fontFamily=Comic Sans MS;" parent="HZ-TQ83FuogPrPlQnaqr-100" vertex="1">
                    <mxGeometry x="377" y="120" width="127" height="60" as="geometry"/>
                </mxCell>
                <mxCell id="HZ-TQ83FuogPrPlQnaqr-102" value="General Topology&lt;br&gt;&lt;b&gt;Stephen Willard&lt;/b&gt;" style="rounded=0;whiteSpace=wrap;html=1;fillColor=#dae8fc;strokeColor=#6c8ebf;fontColor=#000000;fontFamily=Comic Sans MS;" parent="HZ-TQ83FuogPrPlQnaqr-100" vertex="1">
                    <mxGeometry x="13" y="40" width="120" height="60" as="geometry"/>
                </mxCell>
                <mxCell id="HZ-TQ83FuogPrPlQnaqr-103" value="Topology Without Tears&lt;br&gt;&lt;b&gt;Sidney A. Morris&lt;/b&gt;" style="rounded=0;whiteSpace=wrap;html=1;fillColor=#dae8fc;strokeColor=#6c8ebf;fontColor=#000000;fontFamily=Comic Sans MS;" parent="HZ-TQ83FuogPrPlQnaqr-100" vertex="1">
                    <mxGeometry x="13" y="120" width="146" height="60" as="geometry"/>
                </mxCell>
                <mxCell id="HZ-TQ83FuogPrPlQnaqr-104" value="Topological Spaces&lt;br&gt;&lt;b&gt;Gerard Buskes, Arnoud van Rooij&lt;/b&gt;" style="rounded=0;whiteSpace=wrap;html=1;fillColor=#dae8fc;strokeColor=#6c8ebf;fontColor=#000000;fontFamily=Comic Sans MS;" parent="HZ-TQ83FuogPrPlQnaqr-100" vertex="1">
                    <mxGeometry x="350" y="40" width="154" height="60" as="geometry"/>
                </mxCell>
                <mxCell id="HZ-TQ83FuogPrPlQnaqr-105" value="Introduction to Metric and Topological Spaces&lt;br&gt;&lt;b&gt;Wilson A. Sutherland&lt;/b&gt;&lt;br&gt;" style="rounded=0;whiteSpace=wrap;html=1;fillColor=#dae8fc;strokeColor=#6c8ebf;fontColor=#000000;fontFamily=Comic Sans MS;" parent="HZ-TQ83FuogPrPlQnaqr-100" vertex="1">
                    <mxGeometry x="180" y="120" width="182" height="60" as="geometry"/>
                </mxCell>
                <mxCell id="HZ-TQ83FuogPrPlQnaqr-107" value="First Concepts of Topology&lt;br&gt;&lt;b&gt;W. G. Chinn &amp;amp; N. E. Steenrod&lt;/b&gt;" style="rounded=0;whiteSpace=wrap;html=1;fillColor=#dae8fc;strokeColor=#6c8ebf;fontColor=#000000;fontFamily=Comic Sans MS;" parent="HZ-TQ83FuogPrPlQnaqr-100" vertex="1">
                    <mxGeometry x="150" y="40" width="186" height="60" as="geometry"/>
                </mxCell>
                <mxCell id="HZ-TQ83FuogPrPlQnaqr-132" style="edgeStyle=orthogonalEdgeStyle;rounded=0;orthogonalLoop=1;jettySize=auto;html=1;exitX=0.5;exitY=1;exitDx=0;exitDy=0;entryX=0.5;entryY=0;entryDx=0;entryDy=0;fontColor=#000000;fontFamily=Comic Sans MS;" parent="1" source="HZ-TQ83FuogPrPlQnaqr-110" target="HZ-TQ83FuogPrPlQnaqr-127" edge="1">
                    <mxGeometry relative="1" as="geometry"/>
                </mxCell>
                <mxCell id="XHwMdBdWKg2Phqc04OuS-14" style="edgeStyle=orthogonalEdgeStyle;rounded=0;orthogonalLoop=1;jettySize=auto;html=1;exitX=0;exitY=0.5;exitDx=0;exitDy=0;fontColor=#000000;fontFamily=Comic Sans MS;" parent="1" source="HZ-TQ83FuogPrPlQnaqr-110" target="XHwMdBdWKg2Phqc04OuS-8" edge="1">
                    <mxGeometry relative="1" as="geometry"/>
                </mxCell>
                <mxCell id="XHwMdBdWKg2Phqc04OuS-72" style="edgeStyle=orthogonalEdgeStyle;rounded=0;orthogonalLoop=1;jettySize=auto;html=1;exitX=0.75;exitY=1;exitDx=0;exitDy=0;entryX=0.5;entryY=1;entryDx=0;entryDy=0;fontColor=#000000;fontFamily=Comic Sans MS;" parent="1" source="HZ-TQ83FuogPrPlQnaqr-110" target="XHwMdBdWKg2Phqc04OuS-64" edge="1">
                    <mxGeometry relative="1" as="geometry">
                        <Array as="points">
                            <mxPoint x="-1081" y="1630"/>
                            <mxPoint x="1060" y="1630"/>
                        </Array>
                    </mxGeometry>
                </mxCell>
                <mxCell id="XHwMdBdWKg2Phqc04OuS-176" style="edgeStyle=orthogonalEdgeStyle;rounded=0;orthogonalLoop=1;jettySize=auto;html=1;exitX=0;exitY=0.25;exitDx=0;exitDy=0;entryX=1;entryY=0.25;entryDx=0;entryDy=0;fontColor=#000000;fontFamily=Comic Sans MS;" parent="1" source="HZ-TQ83FuogPrPlQnaqr-110" target="XHwMdBdWKg2Phqc04OuS-162" edge="1">
                    <mxGeometry relative="1" as="geometry"/>
                </mxCell>
                <mxCell id="XHwMdBdWKg2Phqc04OuS-187" style="edgeStyle=orthogonalEdgeStyle;rounded=0;orthogonalLoop=1;jettySize=auto;html=1;exitX=0.25;exitY=0;exitDx=0;exitDy=0;entryX=0.5;entryY=0;entryDx=0;entryDy=0;fontColor=#000000;fontFamily=Comic Sans MS;" parent="1" source="HZ-TQ83FuogPrPlQnaqr-110" target="XHwMdBdWKg2Phqc04OuS-178" edge="1">
                    <mxGeometry relative="1" as="geometry">
                        <Array as="points">
                            <mxPoint x="-1242" y="1360"/>
                            <mxPoint x="-2605" y="1360"/>
                        </Array>
                    </mxGeometry>
                </mxCell>
                <mxCell id="HZ-TQ83FuogPrPlQnaqr-110" value="Introduction to Abstract Algebra" style="swimlane;fillColor=#dae8fc;strokeColor=#6c8ebf;fontColor=#000000;fontFamily=Comic Sans MS;" parent="1" vertex="1">
                    <mxGeometry x="-1322.25" y="1400" width="321.5" height="200" as="geometry"/>
                </mxCell>
                <mxCell id="HZ-TQ83FuogPrPlQnaqr-111" value="Contemporary Abstract Algebra&lt;br&gt;&lt;b&gt;Joseph A. Gallian&lt;/b&gt;" style="rounded=0;whiteSpace=wrap;html=1;fillColor=#dae8fc;strokeColor=#6c8ebf;fontColor=#000000;fontFamily=Comic Sans MS;" parent="HZ-TQ83FuogPrPlQnaqr-110" vertex="1">
                    <mxGeometry x="11.5" y="40" width="140" height="60" as="geometry"/>
                </mxCell>
                <mxCell id="HZ-TQ83FuogPrPlQnaqr-112" value="Algebra Abstract and Concrete&lt;br&gt;&lt;b&gt;Frederick Goodman&lt;/b&gt;" style="rounded=0;whiteSpace=wrap;html=1;fillColor=#dae8fc;strokeColor=#6c8ebf;fontColor=#000000;fontFamily=Comic Sans MS;" parent="HZ-TQ83FuogPrPlQnaqr-110" vertex="1">
                    <mxGeometry x="11.5" y="120" width="140" height="60" as="geometry"/>
                </mxCell>
                <mxCell id="HZ-TQ83FuogPrPlQnaqr-113" value="A First Course in Abstract Algebra&lt;br&gt;&lt;b&gt;Joseph J. Rotman&lt;/b&gt;" style="rounded=0;whiteSpace=wrap;html=1;fillColor=#dae8fc;strokeColor=#6c8ebf;fontColor=#000000;fontFamily=Comic Sans MS;" parent="HZ-TQ83FuogPrPlQnaqr-110" vertex="1">
                    <mxGeometry x="173.5" y="120" width="136.5" height="60" as="geometry"/>
                </mxCell>
                <mxCell id="HZ-TQ83FuogPrPlQnaqr-114" value="Algebra&lt;br&gt;&lt;b&gt;Michael Artin&lt;/b&gt;" style="rounded=0;whiteSpace=wrap;html=1;fillColor=#dae8fc;strokeColor=#6c8ebf;fontColor=#000000;fontFamily=Comic Sans MS;" parent="HZ-TQ83FuogPrPlQnaqr-110" vertex="1">
                    <mxGeometry x="169" y="40" width="141" height="60" as="geometry"/>
                </mxCell>
                <mxCell id="HZ-TQ83FuogPrPlQnaqr-119" value="Introduction to Numercial Analysis" style="swimlane;fillColor=#dae8fc;strokeColor=#6c8ebf;fontColor=#000000;fontFamily=Comic Sans MS;" parent="1" vertex="1">
                    <mxGeometry x="-160" y="1400" width="310" height="200" as="geometry"/>
                </mxCell>
                <mxCell id="HZ-TQ83FuogPrPlQnaqr-120" value="Numerical Analysis Richard Burden, Jr. &lt;b&gt;Douglas Faires&lt;/b&gt;" style="rounded=0;whiteSpace=wrap;html=1;fillColor=#dae8fc;strokeColor=#6c8ebf;fontColor=#000000;fontFamily=Comic Sans MS;" parent="HZ-TQ83FuogPrPlQnaqr-119" vertex="1">
                    <mxGeometry x="160" y="40" width="140" height="63" as="geometry"/>
                </mxCell>
                <mxCell id="HZ-TQ83FuogPrPlQnaqr-121" value="Numerical Analysis&lt;br&gt;&lt;b&gt;Timothy Sauer&lt;/b&gt;&lt;br&gt;" style="rounded=0;whiteSpace=wrap;html=1;fillColor=#dae8fc;strokeColor=#6c8ebf;fontColor=#000000;fontFamily=Comic Sans MS;" parent="HZ-TQ83FuogPrPlQnaqr-119" vertex="1">
                    <mxGeometry x="15" y="40" width="125" height="60" as="geometry"/>
                </mxCell>
                <mxCell id="HZ-TQ83FuogPrPlQnaqr-122" value="Numerical Methods That Usually Work &lt;b&gt;Forman S. Acton&lt;/b&gt;" style="rounded=0;whiteSpace=wrap;html=1;fillColor=#dae8fc;strokeColor=#6c8ebf;fontColor=#000000;fontFamily=Comic Sans MS;" parent="HZ-TQ83FuogPrPlQnaqr-119" vertex="1">
                    <mxGeometry x="15" y="110" width="125" height="75" as="geometry"/>
                </mxCell>
                <mxCell id="HZ-TQ83FuogPrPlQnaqr-123" value="An Introduction to Numerical Methods and Analysis&lt;br&gt;&lt;b&gt;James F. Epperson&lt;/b&gt;" style="rounded=0;whiteSpace=wrap;html=1;fillColor=#dae8fc;strokeColor=#6c8ebf;fontColor=#000000;fontFamily=Comic Sans MS;" parent="HZ-TQ83FuogPrPlQnaqr-119" vertex="1">
                    <mxGeometry x="150" y="115" width="150" height="70" as="geometry"/>
                </mxCell>
                <mxCell id="XHwMdBdWKg2Phqc04OuS-22" style="edgeStyle=orthogonalEdgeStyle;rounded=0;orthogonalLoop=1;jettySize=auto;html=1;exitX=0;exitY=0.75;exitDx=0;exitDy=0;entryX=1;entryY=0.25;entryDx=0;entryDy=0;fontColor=#000000;fontFamily=Comic Sans MS;" parent="1" source="HZ-TQ83FuogPrPlQnaqr-127" target="XHwMdBdWKg2Phqc04OuS-15" edge="1">
                    <mxGeometry relative="1" as="geometry"/>
                </mxCell>
                <mxCell id="XHwMdBdWKg2Phqc04OuS-34" style="edgeStyle=orthogonalEdgeStyle;rounded=0;orthogonalLoop=1;jettySize=auto;html=1;exitX=0.5;exitY=1;exitDx=0;exitDy=0;entryX=0.5;entryY=0;entryDx=0;entryDy=0;fontColor=#000000;fontFamily=Comic Sans MS;" parent="1" source="HZ-TQ83FuogPrPlQnaqr-127" target="XHwMdBdWKg2Phqc04OuS-24" edge="1">
                    <mxGeometry relative="1" as="geometry"/>
                </mxCell>
                <mxCell id="XHwMdBdWKg2Phqc04OuS-148" style="edgeStyle=orthogonalEdgeStyle;rounded=0;orthogonalLoop=1;jettySize=auto;html=1;exitX=0.75;exitY=1;exitDx=0;exitDy=0;entryX=0;entryY=0.25;entryDx=0;entryDy=0;fontColor=#000000;fontFamily=Comic Sans MS;" parent="1" source="HZ-TQ83FuogPrPlQnaqr-127" target="HZ-TQ83FuogPrPlQnaqr-153" edge="1">
                    <mxGeometry relative="1" as="geometry"/>
                </mxCell>
                <mxCell id="HZ-TQ83FuogPrPlQnaqr-127" value="Advanced Linear Algebra" style="swimlane;fillColor=#dae8fc;strokeColor=#6c8ebf;fontColor=#000000;fontFamily=Comic Sans MS;" parent="1" vertex="1">
                    <mxGeometry x="-1334.75" y="1720" width="346.5" height="280" as="geometry"/>
                </mxCell>
                <mxCell id="HZ-TQ83FuogPrPlQnaqr-128" value="&lt;span&gt;Linear Algebra Done Right&lt;br&gt;&lt;b&gt;Sheldon Axler&lt;/b&gt;&lt;/span&gt;" style="rounded=0;whiteSpace=wrap;html=1;fillColor=#dae8fc;strokeColor=#6c8ebf;fontColor=#000000;fontFamily=Comic Sans MS;" parent="HZ-TQ83FuogPrPlQnaqr-127" vertex="1">
                    <mxGeometry x="18" y="40" width="172" height="60" as="geometry"/>
                </mxCell>
                <mxCell id="HZ-TQ83FuogPrPlQnaqr-129" value="&lt;span&gt;Linear Algebra&lt;br&gt;&lt;b&gt;Serge Lang&lt;/b&gt;&lt;/span&gt;" style="rounded=0;whiteSpace=wrap;html=1;fillColor=#dae8fc;strokeColor=#6c8ebf;fontColor=#000000;fontFamily=Comic Sans MS;" parent="HZ-TQ83FuogPrPlQnaqr-127" vertex="1">
                    <mxGeometry x="210" y="40" width="120" height="60" as="geometry"/>
                </mxCell>
                <mxCell id="HZ-TQ83FuogPrPlQnaqr-130" value="Finite-Dimensional Vector Spaces&lt;br&gt;&lt;b&gt;Paul R. Halmos&lt;/b&gt;&lt;br&gt;" style="rounded=0;whiteSpace=wrap;html=1;fillColor=#dae8fc;strokeColor=#6c8ebf;fontColor=#000000;fontFamily=Comic Sans MS;" parent="HZ-TQ83FuogPrPlQnaqr-127" vertex="1">
                    <mxGeometry x="18" y="120" width="160" height="60" as="geometry"/>
                </mxCell>
                <mxCell id="HZ-TQ83FuogPrPlQnaqr-133" value="Linear Algebra Done Wrong&lt;br&gt;&lt;b&gt;Sergei Treil&lt;/b&gt;" style="rounded=0;whiteSpace=wrap;html=1;fillColor=#dae8fc;strokeColor=#6c8ebf;fontColor=#000000;fontFamily=Comic Sans MS;" parent="HZ-TQ83FuogPrPlQnaqr-127" vertex="1">
                    <mxGeometry x="194.75" y="120" width="135.25" height="60" as="geometry"/>
                </mxCell>
                <mxCell id="HZ-TQ83FuogPrPlQnaqr-137" value="Linear Algebra&lt;br&gt;&lt;b&gt;Georgi E. Shilov &amp;amp; Richard A. Silverman&lt;/b&gt;" style="rounded=0;whiteSpace=wrap;html=1;fillColor=#dae8fc;strokeColor=#6c8ebf;fontColor=#000000;fontFamily=Comic Sans MS;" parent="HZ-TQ83FuogPrPlQnaqr-127" vertex="1">
                    <mxGeometry x="72.25" y="200" width="202" height="60" as="geometry"/>
                </mxCell>
                <mxCell id="HZ-TQ83FuogPrPlQnaqr-161" style="edgeStyle=orthogonalEdgeStyle;rounded=0;orthogonalLoop=1;jettySize=auto;html=1;exitX=0.25;exitY=1;exitDx=0;exitDy=0;fontColor=#000000;fontFamily=Comic Sans MS;" parent="1" source="HZ-TQ83FuogPrPlQnaqr-138" target="HZ-TQ83FuogPrPlQnaqr-153" edge="1">
                    <mxGeometry relative="1" as="geometry"/>
                </mxCell>
                <mxCell id="HZ-TQ83FuogPrPlQnaqr-138" value="Introduction to Complex Analysis" style="swimlane;fillColor=#dae8fc;strokeColor=#6c8ebf;fontColor=#000000;fontFamily=Comic Sans MS;" parent="1" vertex="1">
                    <mxGeometry x="-746.5" y="1720" width="428" height="200" as="geometry"/>
                </mxCell>
                <mxCell id="HZ-TQ83FuogPrPlQnaqr-139" value="&lt;span&gt;Complex Analysis&lt;br&gt;&lt;b&gt;John M. Howie&lt;/b&gt;&lt;/span&gt;" style="rounded=0;whiteSpace=wrap;html=1;fillColor=#dae8fc;strokeColor=#6c8ebf;fontColor=#000000;fontFamily=Comic Sans MS;" parent="HZ-TQ83FuogPrPlQnaqr-138" vertex="1">
                    <mxGeometry x="16.5" y="40" width="120" height="60" as="geometry"/>
                </mxCell>
                <mxCell id="HZ-TQ83FuogPrPlQnaqr-140" value="&lt;span&gt;Complex Analysis with Applications&lt;br&gt;&lt;b&gt;Dennis G. Zill&lt;/b&gt;&lt;/span&gt;" style="rounded=0;whiteSpace=wrap;html=1;fillColor=#dae8fc;strokeColor=#6c8ebf;fontColor=#000000;fontFamily=Comic Sans MS;" parent="HZ-TQ83FuogPrPlQnaqr-138" vertex="1">
                    <mxGeometry x="258" y="120" width="152" height="60" as="geometry"/>
                </mxCell>
                <mxCell id="HZ-TQ83FuogPrPlQnaqr-141" value="&lt;span&gt;Complex Variables and Applications&lt;br&gt;&lt;b&gt;James Ward Brown, Ruel Churchill&lt;/b&gt;&lt;/span&gt;" style="rounded=0;whiteSpace=wrap;html=1;fillColor=#dae8fc;strokeColor=#6c8ebf;fontColor=#000000;fontFamily=Comic Sans MS;" parent="HZ-TQ83FuogPrPlQnaqr-138" vertex="1">
                    <mxGeometry x="18" y="120" width="220" height="60" as="geometry"/>
                </mxCell>
                <mxCell id="HZ-TQ83FuogPrPlQnaqr-142" value="&lt;span&gt;Complex Variables&lt;br&gt;&lt;b&gt;Mark J. Ablowitz&lt;/b&gt;&lt;/span&gt;" style="rounded=0;whiteSpace=wrap;html=1;fillColor=#dae8fc;strokeColor=#6c8ebf;fontColor=#000000;fontFamily=Comic Sans MS;" parent="HZ-TQ83FuogPrPlQnaqr-138" vertex="1">
                    <mxGeometry x="156" y="40" width="112" height="60" as="geometry"/>
                </mxCell>
                <mxCell id="HZ-TQ83FuogPrPlQnaqr-143" value="&lt;span&gt;Visual Complex Analysis&lt;br&gt;&lt;b&gt;Tristan Needham&lt;/b&gt;&lt;/span&gt;" style="rounded=0;whiteSpace=wrap;html=1;fillColor=#dae8fc;strokeColor=#6c8ebf;fontColor=#000000;fontFamily=Comic Sans MS;" parent="HZ-TQ83FuogPrPlQnaqr-138" vertex="1">
                    <mxGeometry x="287.5" y="40" width="120" height="60" as="geometry"/>
                </mxCell>
                <mxCell id="XHwMdBdWKg2Phqc04OuS-160" style="edgeStyle=orthogonalEdgeStyle;rounded=0;orthogonalLoop=1;jettySize=auto;html=1;exitX=0.5;exitY=1;exitDx=0;exitDy=0;entryX=0.5;entryY=0;entryDx=0;entryDy=0;fontColor=#000000;fontFamily=Comic Sans MS;" parent="1" source="HZ-TQ83FuogPrPlQnaqr-147" target="XHwMdBdWKg2Phqc04OuS-1" edge="1">
                    <mxGeometry relative="1" as="geometry"/>
                </mxCell>
                <mxCell id="HZ-TQ83FuogPrPlQnaqr-147" value="Introduction to Functional Analysis" style="swimlane;fillColor=#dae8fc;strokeColor=#6c8ebf;fontColor=#000000;fontFamily=Comic Sans MS;" parent="1" vertex="1">
                    <mxGeometry x="-926.5" y="2440" width="325" height="120" as="geometry"/>
                </mxCell>
                <mxCell id="HZ-TQ83FuogPrPlQnaqr-148" value="Introductory Functional Analysis with Applications&lt;br&gt;&lt;b&gt;Erwin Kreyszig&lt;/b&gt;" style="rounded=0;whiteSpace=wrap;html=1;fillColor=#dae8fc;strokeColor=#6c8ebf;fontColor=#000000;fontFamily=Comic Sans MS;" parent="HZ-TQ83FuogPrPlQnaqr-147" vertex="1">
                    <mxGeometry x="13.5" y="40" width="145" height="60" as="geometry"/>
                </mxCell>
                <mxCell id="HZ-TQ83FuogPrPlQnaqr-150" value="&lt;div&gt;Principles of Functional Analysis&lt;/div&gt;&lt;div&gt;&lt;b&gt;Martin Schechter&lt;/b&gt;&lt;/div&gt;" style="rounded=0;whiteSpace=wrap;html=1;fillColor=#dae8fc;strokeColor=#6c8ebf;fontColor=#000000;fontFamily=Comic Sans MS;" parent="HZ-TQ83FuogPrPlQnaqr-147" vertex="1">
                    <mxGeometry x="169" y="40" width="141" height="60" as="geometry"/>
                </mxCell>
                <mxCell id="XHwMdBdWKg2Phqc04OuS-159" style="edgeStyle=orthogonalEdgeStyle;rounded=0;orthogonalLoop=1;jettySize=auto;html=1;exitX=0.5;exitY=1;exitDx=0;exitDy=0;entryX=0.5;entryY=0;entryDx=0;entryDy=0;fontColor=#000000;fontFamily=Comic Sans MS;" parent="1" source="HZ-TQ83FuogPrPlQnaqr-153" target="HZ-TQ83FuogPrPlQnaqr-147" edge="1">
                    <mxGeometry relative="1" as="geometry"/>
                </mxCell>
                <mxCell id="TdLw2zF5TJnS2Xj7bHxv-1" style="edgeStyle=orthogonalEdgeStyle;rounded=0;orthogonalLoop=1;jettySize=auto;html=1;exitX=1;exitY=0.5;exitDx=0;exitDy=0;entryX=0;entryY=0.5;entryDx=0;entryDy=0;fontColor=#000000;fontFamily=Comic Sans MS;" parent="1" source="HZ-TQ83FuogPrPlQnaqr-153" target="XHwMdBdWKg2Phqc04OuS-133" edge="1">
                    <mxGeometry relative="1" as="geometry"/>
                </mxCell>
                <mxCell id="TdLw2zF5TJnS2Xj7bHxv-2" style="edgeStyle=orthogonalEdgeStyle;rounded=0;orthogonalLoop=1;jettySize=auto;html=1;exitX=1;exitY=0.75;exitDx=0;exitDy=0;entryX=0;entryY=0.5;entryDx=0;entryDy=0;fontColor=#000000;fontFamily=Comic Sans MS;" parent="1" source="HZ-TQ83FuogPrPlQnaqr-153" target="XHwMdBdWKg2Phqc04OuS-188" edge="1">
                    <mxGeometry relative="1" as="geometry"/>
                </mxCell>
                <mxCell id="HZ-TQ83FuogPrPlQnaqr-153" value="Introduction to Mathematical Analysis" style="swimlane;fillColor=#dae8fc;strokeColor=#6c8ebf;fontColor=#000000;fontFamily=Comic Sans MS;" parent="1" vertex="1">
                    <mxGeometry x="-932.5" y="2040" width="337" height="280" as="geometry"/>
                </mxCell>
                <mxCell id="HZ-TQ83FuogPrPlQnaqr-154" value="Principles of Mathematical Analysis&lt;br&gt;&lt;b&gt;Walter Rudin&lt;/b&gt;" style="rounded=0;whiteSpace=wrap;html=1;fillColor=#dae8fc;strokeColor=#6c8ebf;fontColor=#000000;fontFamily=Comic Sans MS;" parent="HZ-TQ83FuogPrPlQnaqr-153" vertex="1">
                    <mxGeometry x="19" y="40" width="162" height="60" as="geometry"/>
                </mxCell>
                <mxCell id="HZ-TQ83FuogPrPlQnaqr-155" value="Mathematical Analysis&lt;br&gt;&lt;b&gt;Tom Apostol&lt;/b&gt;" style="rounded=0;whiteSpace=wrap;html=1;fillColor=#dae8fc;strokeColor=#6c8ebf;fontColor=#000000;fontFamily=Comic Sans MS;" parent="HZ-TQ83FuogPrPlQnaqr-153" vertex="1">
                    <mxGeometry x="18.5" y="120" width="120" height="60" as="geometry"/>
                </mxCell>
                <mxCell id="HZ-TQ83FuogPrPlQnaqr-156" value="Methods of Real Analysis&lt;br&gt;&lt;b&gt;Richard R. Goldberg&lt;/b&gt;" style="rounded=0;whiteSpace=wrap;html=1;fillColor=#dae8fc;strokeColor=#6c8ebf;fontColor=#000000;fontFamily=Comic Sans MS;" parent="HZ-TQ83FuogPrPlQnaqr-153" vertex="1">
                    <mxGeometry x="154" y="120" width="164" height="60" as="geometry"/>
                </mxCell>
                <mxCell id="HZ-TQ83FuogPrPlQnaqr-157" value="The Elements of Real Analysis&lt;br&gt;&lt;b&gt;Robert G. Bartle&lt;/b&gt;" style="rounded=0;whiteSpace=wrap;html=1;fillColor=#dae8fc;strokeColor=#6c8ebf;fontColor=#000000;fontFamily=Comic Sans MS;" parent="HZ-TQ83FuogPrPlQnaqr-153" vertex="1">
                    <mxGeometry x="191.5" y="40" width="133" height="60" as="geometry"/>
                </mxCell>
                <mxCell id="HZ-TQ83FuogPrPlQnaqr-158" value="Advanced Calculus of Several Variables&lt;br&gt;&lt;b&gt;C. H. Edwards Jr.&lt;/b&gt;" style="rounded=0;whiteSpace=wrap;html=1;fillColor=#dae8fc;strokeColor=#6c8ebf;fontColor=#000000;fontFamily=Comic Sans MS;" parent="HZ-TQ83FuogPrPlQnaqr-153" vertex="1">
                    <mxGeometry x="18" y="200" width="140" height="60" as="geometry"/>
                </mxCell>
                <mxCell id="HZ-TQ83FuogPrPlQnaqr-159" value="Calculus and Analysis in Euclidean Space&lt;br&gt;&lt;b&gt;Jerry Shurman&lt;/b&gt;" style="rounded=0;whiteSpace=wrap;html=1;fillColor=#dae8fc;strokeColor=#6c8ebf;fontColor=#000000;fontFamily=Comic Sans MS;" parent="HZ-TQ83FuogPrPlQnaqr-153" vertex="1">
                    <mxGeometry x="168" y="200" width="152" height="60" as="geometry"/>
                </mxCell>
                <mxCell id="XHwMdBdWKg2Phqc04OuS-1" value="Advanced Mathematical Analysis" style="swimlane;fillColor=#dae8fc;strokeColor=#6c8ebf;fontColor=#000000;fontFamily=Comic Sans MS;" parent="1" vertex="1">
                    <mxGeometry x="-919.75" y="2680" width="311.5" height="200" as="geometry"/>
                </mxCell>
                <mxCell id="XHwMdBdWKg2Phqc04OuS-2" value="Real Analysis&lt;br&gt;&lt;b&gt;H.L. Royden, P.M. Fitzpatrick&lt;/b&gt;" style="rounded=0;whiteSpace=wrap;html=1;fillColor=#dae8fc;strokeColor=#6c8ebf;fontColor=#000000;fontFamily=Comic Sans MS;" parent="XHwMdBdWKg2Phqc04OuS-1" vertex="1">
                    <mxGeometry x="170" y="120" width="129.75" height="60" as="geometry"/>
                </mxCell>
                <mxCell id="XHwMdBdWKg2Phqc04OuS-3" value="Real Analysis&lt;br&gt;&lt;b&gt;Gerald B. Folland&lt;/b&gt;" style="rounded=0;whiteSpace=wrap;html=1;fillColor=#dae8fc;strokeColor=#6c8ebf;fontColor=#000000;fontFamily=Comic Sans MS;" parent="XHwMdBdWKg2Phqc04OuS-1" vertex="1">
                    <mxGeometry x="20.5" y="120" width="129.5" height="60" as="geometry"/>
                </mxCell>
                <mxCell id="XHwMdBdWKg2Phqc04OuS-4" value="Real Analysis&lt;br&gt;&lt;b&gt;Elias M. Stein, Rami Shakarch&lt;/b&gt;i" style="rounded=0;whiteSpace=wrap;html=1;fillColor=#dae8fc;strokeColor=#6c8ebf;fontColor=#000000;fontFamily=Comic Sans MS;" parent="XHwMdBdWKg2Phqc04OuS-1" vertex="1">
                    <mxGeometry x="20.5" y="40" width="135" height="60" as="geometry"/>
                </mxCell>
                <mxCell id="XHwMdBdWKg2Phqc04OuS-5" value="Real and Complex Analysis&lt;br&gt;&lt;b&gt;Walter Rudin&lt;/b&gt;" style="rounded=0;whiteSpace=wrap;html=1;fillColor=#dae8fc;strokeColor=#6c8ebf;fontColor=#000000;fontFamily=Comic Sans MS;" parent="XHwMdBdWKg2Phqc04OuS-1" vertex="1">
                    <mxGeometry x="169.75" y="40" width="130" height="60" as="geometry"/>
                </mxCell>
                <mxCell id="XHwMdBdWKg2Phqc04OuS-20" style="edgeStyle=orthogonalEdgeStyle;rounded=0;orthogonalLoop=1;jettySize=auto;html=1;exitX=0.5;exitY=1;exitDx=0;exitDy=0;entryX=0.5;entryY=0;entryDx=0;entryDy=0;fontColor=#000000;fontFamily=Comic Sans MS;" parent="1" source="XHwMdBdWKg2Phqc04OuS-8" target="XHwMdBdWKg2Phqc04OuS-15" edge="1">
                    <mxGeometry relative="1" as="geometry"/>
                </mxCell>
                <mxCell id="XHwMdBdWKg2Phqc04OuS-36" style="edgeStyle=orthogonalEdgeStyle;rounded=0;orthogonalLoop=1;jettySize=auto;html=1;exitX=1;exitY=0.75;exitDx=0;exitDy=0;entryX=0;entryY=0.25;entryDx=0;entryDy=0;fontColor=#000000;fontFamily=Comic Sans MS;" parent="1" source="XHwMdBdWKg2Phqc04OuS-8" target="XHwMdBdWKg2Phqc04OuS-24" edge="1">
                    <mxGeometry relative="1" as="geometry">
                        <Array as="points">
                            <mxPoint x="-1380" y="1910"/>
                            <mxPoint x="-1380" y="2380"/>
                        </Array>
                    </mxGeometry>
                </mxCell>
                <mxCell id="XHwMdBdWKg2Phqc04OuS-62" style="edgeStyle=orthogonalEdgeStyle;rounded=0;orthogonalLoop=1;jettySize=auto;html=1;exitX=0.75;exitY=0;exitDx=0;exitDy=0;entryX=0.5;entryY=1;entryDx=0;entryDy=0;fontColor=#000000;fontFamily=Comic Sans MS;" parent="1" source="XHwMdBdWKg2Phqc04OuS-8" target="XHwMdBdWKg2Phqc04OuS-54" edge="1">
                    <mxGeometry relative="1" as="geometry">
                        <Array as="points">
                            <mxPoint x="-1579" y="1660"/>
                            <mxPoint x="610" y="1660"/>
                        </Array>
                    </mxGeometry>
                </mxCell>
                <mxCell id="XHwMdBdWKg2Phqc04OuS-8" value="Motivation for Category Theory" style="swimlane;fillColor=#dae8fc;strokeColor=#6c8ebf;fontColor=#000000;fontFamily=Comic Sans MS;" parent="1" vertex="1">
                    <mxGeometry x="-1870" y="1760" width="388" height="200" as="geometry"/>
                </mxCell>
                <mxCell id="XHwMdBdWKg2Phqc04OuS-9" value="&lt;span&gt;Conceptual Mathematics&lt;br&gt;&lt;b&gt;F. William Lawvere, Stephen H. Schanuel&lt;/b&gt;&lt;/span&gt;" style="rounded=0;whiteSpace=wrap;html=1;fillColor=#dae8fc;strokeColor=#6c8ebf;fontColor=#000000;fontFamily=Comic Sans MS;" parent="XHwMdBdWKg2Phqc04OuS-8" vertex="1">
                    <mxGeometry x="110" y="40" width="160" height="60" as="geometry"/>
                </mxCell>
                <mxCell id="XHwMdBdWKg2Phqc04OuS-10" value="&lt;span&gt;Sets for Mathematics&lt;br&gt;&lt;b&gt;F.W. Lawvere, R. Rosebrugh&lt;/b&gt;&lt;/span&gt;" style="rounded=0;whiteSpace=wrap;html=1;fillColor=#dae8fc;strokeColor=#6c8ebf;fontColor=#000000;fontFamily=Comic Sans MS;" parent="XHwMdBdWKg2Phqc04OuS-8" vertex="1">
                    <mxGeometry x="12" y="120" width="130" height="60" as="geometry"/>
                </mxCell>
                <mxCell id="XHwMdBdWKg2Phqc04OuS-11" value="&lt;span&gt;Arrows Structures and Functors: The Categorical Imperative&lt;br&gt;&lt;b&gt;Michael A. Arbib&lt;/b&gt;&lt;/span&gt;" style="rounded=0;whiteSpace=wrap;html=1;fillColor=#dae8fc;strokeColor=#6c8ebf;fontColor=#000000;fontFamily=Comic Sans MS;" parent="XHwMdBdWKg2Phqc04OuS-8" vertex="1">
                    <mxGeometry x="160" y="120" width="215" height="60" as="geometry"/>
                </mxCell>
                <mxCell id="XHwMdBdWKg2Phqc04OuS-15" value="Introduction to Category Theory" style="swimlane;fillColor=#dae8fc;strokeColor=#6c8ebf;fontColor=#000000;fontFamily=Comic Sans MS;" parent="1" vertex="1">
                    <mxGeometry x="-1846" y="2080" width="340" height="250" as="geometry"/>
                </mxCell>
                <mxCell id="XHwMdBdWKg2Phqc04OuS-16" value="&lt;span&gt;Category Theory&lt;br&gt;&lt;b&gt;Steve Awodey&lt;/b&gt;&lt;/span&gt;" style="rounded=0;whiteSpace=wrap;html=1;fillColor=#dae8fc;strokeColor=#6c8ebf;fontColor=#000000;fontFamily=Comic Sans MS;" parent="XHwMdBdWKg2Phqc04OuS-15" vertex="1">
                    <mxGeometry x="22" y="40" width="120" height="60" as="geometry"/>
                </mxCell>
                <mxCell id="XHwMdBdWKg2Phqc04OuS-17" value="&lt;span&gt;Basic Category Theory&lt;br&gt;&lt;b&gt;Tom Leinster&lt;/b&gt;&lt;/span&gt;" style="rounded=0;whiteSpace=wrap;html=1;fillColor=#dae8fc;strokeColor=#6c8ebf;fontColor=#000000;fontFamily=Comic Sans MS;" parent="XHwMdBdWKg2Phqc04OuS-15" vertex="1">
                    <mxGeometry x="22" y="110" width="120" height="60" as="geometry"/>
                </mxCell>
                <mxCell id="XHwMdBdWKg2Phqc04OuS-18" value="&lt;span&gt;Abstract and Concrete Categories The Joy of Cats&lt;br&gt;&lt;b&gt;Jiri Adamek&lt;/b&gt;&lt;/span&gt;" style="rounded=0;whiteSpace=wrap;html=1;fillColor=#dae8fc;strokeColor=#6c8ebf;fontColor=#000000;fontFamily=Comic Sans MS;" parent="XHwMdBdWKg2Phqc04OuS-15" vertex="1">
                    <mxGeometry x="160" y="110" width="160" height="60" as="geometry"/>
                </mxCell>
                <mxCell id="XHwMdBdWKg2Phqc04OuS-19" value="&lt;span&gt;Category Theory: A Gentle Introduction&lt;br&gt;&lt;b&gt;Peter Smith&lt;/b&gt;&lt;/span&gt;" style="rounded=0;whiteSpace=wrap;html=1;fillColor=#dae8fc;strokeColor=#6c8ebf;fontColor=#000000;fontFamily=Comic Sans MS;" parent="XHwMdBdWKg2Phqc04OuS-15" vertex="1">
                    <mxGeometry x="90" y="180" width="160" height="60" as="geometry"/>
                </mxCell>
                <mxCell id="XHwMdBdWKg2Phqc04OuS-21" value="Category Theory in Context&lt;br&gt;&lt;b&gt;Emily Riehl&lt;/b&gt;" style="rounded=0;whiteSpace=wrap;html=1;fillColor=#dae8fc;strokeColor=#6c8ebf;fontColor=#000000;fontFamily=Comic Sans MS;" parent="XHwMdBdWKg2Phqc04OuS-15" vertex="1">
                    <mxGeometry x="160" y="40" width="160" height="60" as="geometry"/>
                </mxCell>
                <mxCell id="XHwMdBdWKg2Phqc04OuS-76" style="edgeStyle=orthogonalEdgeStyle;rounded=0;orthogonalLoop=1;jettySize=auto;html=1;exitX=0.5;exitY=1;exitDx=0;exitDy=0;entryX=0.5;entryY=0;entryDx=0;entryDy=0;fontColor=#000000;fontFamily=Comic Sans MS;" parent="1" source="XHwMdBdWKg2Phqc04OuS-24" target="XHwMdBdWKg2Phqc04OuS-73" edge="1">
                    <mxGeometry relative="1" as="geometry"/>
                </mxCell>
                <mxCell id="XHwMdBdWKg2Phqc04OuS-24" value="Advanced Abstract Algebra" style="swimlane;fillColor=#dae8fc;strokeColor=#6c8ebf;fontColor=#000000;fontFamily=Comic Sans MS;" parent="1" vertex="1">
                    <mxGeometry x="-1328" y="2270" width="333" height="440" as="geometry"/>
                </mxCell>
                <mxCell id="XHwMdBdWKg2Phqc04OuS-25" value="&lt;span&gt;Algebra&lt;br&gt;&lt;b&gt;Thomas Hungerford&lt;/b&gt;&lt;/span&gt;" style="rounded=0;whiteSpace=wrap;html=1;fillColor=#dae8fc;strokeColor=#6c8ebf;fontColor=#000000;fontFamily=Comic Sans MS;" parent="XHwMdBdWKg2Phqc04OuS-24" vertex="1">
                    <mxGeometry x="23" y="40" width="134" height="60" as="geometry"/>
                </mxCell>
                <mxCell id="XHwMdBdWKg2Phqc04OuS-26" value="&lt;span&gt;Abstract Algebra&lt;br&gt;&lt;b&gt;David S. Dummit, Richard M. Foote&lt;/b&gt;&lt;/span&gt;" style="rounded=0;whiteSpace=wrap;html=1;fillColor=#dae8fc;strokeColor=#6c8ebf;fontColor=#000000;fontFamily=Comic Sans MS;" parent="XHwMdBdWKg2Phqc04OuS-24" vertex="1">
                    <mxGeometry x="170" y="40" width="138" height="60" as="geometry"/>
                </mxCell>
                <mxCell id="XHwMdBdWKg2Phqc04OuS-27" value="&lt;span&gt;Advanced Modern Algebra&lt;br&gt;&lt;b&gt;Joseph J. Rotman&lt;/b&gt;&lt;/span&gt;" style="rounded=0;whiteSpace=wrap;html=1;fillColor=#dae8fc;strokeColor=#6c8ebf;fontColor=#000000;fontFamily=Comic Sans MS;" parent="XHwMdBdWKg2Phqc04OuS-24" vertex="1">
                    <mxGeometry x="21" y="120" width="138" height="60" as="geometry"/>
                </mxCell>
                <mxCell id="XHwMdBdWKg2Phqc04OuS-28" value="&lt;span&gt;Algebra&lt;br&gt;&lt;b&gt;Serge Lang&lt;/b&gt;&lt;/span&gt;" style="rounded=0;whiteSpace=wrap;html=1;fillColor=#dae8fc;strokeColor=#6c8ebf;fontColor=#000000;fontFamily=Comic Sans MS;" parent="XHwMdBdWKg2Phqc04OuS-24" vertex="1">
                    <mxGeometry x="21" y="280" width="134" height="60" as="geometry"/>
                </mxCell>
                <mxCell id="XHwMdBdWKg2Phqc04OuS-29" value="&lt;span&gt;Algebra: A Graduate Course&lt;br&gt;&lt;b&gt;I. Martin Isaacs&lt;/b&gt;&lt;/span&gt;" style="rounded=0;whiteSpace=wrap;html=1;fillColor=#dae8fc;strokeColor=#6c8ebf;fontColor=#000000;fontFamily=Comic Sans MS;" parent="XHwMdBdWKg2Phqc04OuS-24" vertex="1">
                    <mxGeometry x="168" y="120" width="140" height="60" as="geometry"/>
                </mxCell>
                <mxCell id="XHwMdBdWKg2Phqc04OuS-30" value="&lt;span&gt;Algebra: Chapter 0&lt;br&gt;&lt;b&gt;Paolo Aluffi&lt;/b&gt;&lt;/span&gt;" style="rounded=0;whiteSpace=wrap;html=1;fillColor=#dae8fc;strokeColor=#6c8ebf;fontColor=#000000;fontFamily=Comic Sans MS;" parent="XHwMdBdWKg2Phqc04OuS-24" vertex="1">
                    <mxGeometry x="171.5" y="280" width="135" height="60" as="geometry"/>
                </mxCell>
                <mxCell id="XHwMdBdWKg2Phqc04OuS-31" value="Algebra&lt;br&gt;&lt;b&gt;Paul M. Cohn&lt;/b&gt;" style="rounded=0;whiteSpace=wrap;html=1;fillColor=#dae8fc;strokeColor=#6c8ebf;fontColor=#000000;fontFamily=Comic Sans MS;" parent="XHwMdBdWKg2Phqc04OuS-24" vertex="1">
                    <mxGeometry x="21" y="200" width="139" height="60" as="geometry"/>
                </mxCell>
                <mxCell id="XHwMdBdWKg2Phqc04OuS-32" value="A Course in Algebra &lt;b&gt;E.B. Vinberg&lt;/b&gt;" style="rounded=0;whiteSpace=wrap;html=1;fillColor=#dae8fc;strokeColor=#6c8ebf;fontColor=#000000;fontFamily=Comic Sans MS;" parent="XHwMdBdWKg2Phqc04OuS-24" vertex="1">
                    <mxGeometry x="173" y="200" width="135" height="60" as="geometry"/>
                </mxCell>
                <mxCell id="XHwMdBdWKg2Phqc04OuS-33" value="Introduction to Commutative Algebra&lt;br&gt;&lt;b&gt;M. F. Atiyah &amp;amp; I. G. MacDonald&lt;/b&gt;" style="rounded=0;whiteSpace=wrap;html=1;fillColor=#dae8fc;strokeColor=#6c8ebf;fontColor=#000000;fontFamily=Comic Sans MS;" parent="XHwMdBdWKg2Phqc04OuS-24" vertex="1">
                    <mxGeometry x="72" y="360" width="190" height="60" as="geometry"/>
                </mxCell>
                <mxCell id="XHwMdBdWKg2Phqc04OuS-54" value="Universal Algebra" style="swimlane;fillColor=#dae8fc;strokeColor=#6c8ebf;fontColor=#000000;fontFamily=Comic Sans MS;" parent="1" vertex="1">
                    <mxGeometry x="440" y="1000" width="340" height="250" as="geometry"/>
                </mxCell>
                <mxCell id="XHwMdBdWKg2Phqc04OuS-55" value="An Invitation to General Algebra and Universal Constructions &lt;br&gt;&lt;b&gt;George M. Bergman&lt;/b&gt;" style="rounded=0;whiteSpace=wrap;html=1;fillColor=#dae8fc;strokeColor=#6c8ebf;fontColor=#000000;fontFamily=Comic Sans MS;" parent="XHwMdBdWKg2Phqc04OuS-54" vertex="1">
                    <mxGeometry x="145" y="40" width="180" height="60" as="geometry"/>
                </mxCell>
                <mxCell id="XHwMdBdWKg2Phqc04OuS-56" value="A Course in Universal Algebra&lt;br&gt;&lt;b&gt;Stanley Burris, H.P. Sankappanavar&lt;/b&gt;" style="rounded=0;whiteSpace=wrap;html=1;fillColor=#dae8fc;strokeColor=#6c8ebf;fontColor=#000000;fontFamily=Comic Sans MS;" parent="XHwMdBdWKg2Phqc04OuS-54" vertex="1">
                    <mxGeometry x="145" y="110" width="180" height="60" as="geometry"/>
                </mxCell>
                <mxCell id="XHwMdBdWKg2Phqc04OuS-57" value="Universal Algebra&lt;br&gt;&lt;b&gt;G. Gratzer&lt;/b&gt;" style="rounded=0;whiteSpace=wrap;html=1;fillColor=#dae8fc;strokeColor=#6c8ebf;fontColor=#000000;fontFamily=Comic Sans MS;" parent="XHwMdBdWKg2Phqc04OuS-54" vertex="1">
                    <mxGeometry x="15" y="110" width="120" height="60" as="geometry"/>
                </mxCell>
                <mxCell id="XHwMdBdWKg2Phqc04OuS-58" value="Universal Algebra&lt;br&gt;&lt;b&gt;P.M. Cohn&lt;/b&gt;" style="rounded=0;whiteSpace=wrap;html=1;fillColor=#dae8fc;strokeColor=#6c8ebf;fontColor=#000000;fontFamily=Comic Sans MS;" parent="XHwMdBdWKg2Phqc04OuS-54" vertex="1">
                    <mxGeometry x="15" y="40" width="120" height="60" as="geometry"/>
                </mxCell>
                <mxCell id="XHwMdBdWKg2Phqc04OuS-59" value="Universal Algebra&lt;br&gt;&lt;b&gt;Clifford Bergman&lt;/b&gt;" style="rounded=0;whiteSpace=wrap;html=1;fillColor=#dae8fc;strokeColor=#6c8ebf;fontColor=#000000;fontFamily=Comic Sans MS;" parent="XHwMdBdWKg2Phqc04OuS-54" vertex="1">
                    <mxGeometry x="15" y="180" width="120" height="60" as="geometry"/>
                </mxCell>
                <mxCell id="XHwMdBdWKg2Phqc04OuS-60" value="Post-Modern Algebra&lt;br&gt;&lt;b&gt;Jonathan D. H. Smith, Anna B. Romanowska&lt;/b&gt;" style="rounded=0;whiteSpace=wrap;html=1;fillColor=#dae8fc;strokeColor=#6c8ebf;fontColor=#000000;fontFamily=Comic Sans MS;" parent="XHwMdBdWKg2Phqc04OuS-54" vertex="1">
                    <mxGeometry x="145" y="180" width="180" height="60" as="geometry"/>
                </mxCell>
                <mxCell id="XHwMdBdWKg2Phqc04OuS-64" value="Introduction to Lattice Theory" style="swimlane;fillColor=#dae8fc;strokeColor=#6c8ebf;fontColor=#000000;fontFamily=Comic Sans MS;" parent="1" vertex="1">
                    <mxGeometry x="890" y="1020" width="340" height="120" as="geometry"/>
                </mxCell>
                <mxCell id="XHwMdBdWKg2Phqc04OuS-65" value="Introduction to Lattices and Order&lt;br&gt;&lt;b&gt;B.A. Davey&lt;/b&gt;" style="rounded=0;whiteSpace=wrap;html=1;fillColor=#dae8fc;strokeColor=#6c8ebf;fontColor=#000000;fontFamily=Comic Sans MS;" parent="XHwMdBdWKg2Phqc04OuS-64" vertex="1">
                    <mxGeometry x="145" y="40" width="180" height="60" as="geometry"/>
                </mxCell>
                <mxCell id="XHwMdBdWKg2Phqc04OuS-68" value="Lattices and Ordered Sets&lt;br&gt;&lt;b&gt;Steven Roman&lt;/b&gt;" style="rounded=0;whiteSpace=wrap;html=1;fillColor=#dae8fc;strokeColor=#6c8ebf;fontColor=#000000;fontFamily=Comic Sans MS;" parent="XHwMdBdWKg2Phqc04OuS-64" vertex="1">
                    <mxGeometry x="15" y="40" width="120" height="60" as="geometry"/>
                </mxCell>
                <mxCell id="XHwMdBdWKg2Phqc04OuS-73" value="Algebraic Number Theory" style="swimlane;fillColor=#dae8fc;strokeColor=#6c8ebf;fontColor=#000000;fontFamily=Comic Sans MS;" parent="1" vertex="1">
                    <mxGeometry x="-1311.5" y="2840" width="300" height="200" as="geometry"/>
                </mxCell>
                <mxCell id="XHwMdBdWKg2Phqc04OuS-74" value="&lt;div&gt;An Introduction to the Theory of Numbers&lt;/div&gt;&lt;div&gt;&lt;b&gt;Ivan Niven, Herbert S. Zuckerman, Hugh L. Montgomery&lt;/b&gt;&lt;/div&gt;" style="rounded=0;whiteSpace=wrap;html=1;fillColor=#dae8fc;strokeColor=#6c8ebf;fontColor=#000000;fontFamily=Comic Sans MS;" parent="XHwMdBdWKg2Phqc04OuS-73" vertex="1">
                    <mxGeometry x="17" y="120" width="260" height="60" as="geometry"/>
                </mxCell>
                <mxCell id="XHwMdBdWKg2Phqc04OuS-75" value="&lt;div&gt;Number Fields&lt;/div&gt;&lt;div&gt;&lt;b&gt;Daniel A. Marcus&lt;/b&gt;&lt;/div&gt;" style="rounded=0;whiteSpace=wrap;html=1;fillColor=#dae8fc;strokeColor=#6c8ebf;fontColor=#000000;fontFamily=Comic Sans MS;" parent="XHwMdBdWKg2Phqc04OuS-73" vertex="1">
                    <mxGeometry x="90" y="40" width="120" height="60" as="geometry"/>
                </mxCell>
                <mxCell id="XHwMdBdWKg2Phqc04OuS-93" style="edgeStyle=orthogonalEdgeStyle;rounded=0;orthogonalLoop=1;jettySize=auto;html=1;exitX=0.5;exitY=1;exitDx=0;exitDy=0;entryX=0.5;entryY=0;entryDx=0;entryDy=0;fontColor=#000000;fontFamily=Comic Sans MS;" parent="1" source="XHwMdBdWKg2Phqc04OuS-78" target="XHwMdBdWKg2Phqc04OuS-84" edge="1">
                    <mxGeometry relative="1" as="geometry"/>
                </mxCell>
                <mxCell id="XHwMdBdWKg2Phqc04OuS-131" style="edgeStyle=orthogonalEdgeStyle;rounded=0;orthogonalLoop=1;jettySize=auto;html=1;exitX=1;exitY=0.5;exitDx=0;exitDy=0;entryX=0;entryY=0.5;entryDx=0;entryDy=0;fontColor=#000000;fontFamily=Comic Sans MS;" parent="1" source="XHwMdBdWKg2Phqc04OuS-78" target="XHwMdBdWKg2Phqc04OuS-125" edge="1">
                    <mxGeometry relative="1" as="geometry"/>
                </mxCell>
                <mxCell id="XHwMdBdWKg2Phqc04OuS-78" value="Introduction to Probability Theory" style="swimlane;fillColor=#dae8fc;strokeColor=#6c8ebf;fontColor=#000000;fontFamily=Comic Sans MS;" parent="1" vertex="1">
                    <mxGeometry x="160" y="1720" width="440" height="200" as="geometry"/>
                </mxCell>
                <mxCell id="XHwMdBdWKg2Phqc04OuS-79" value="A First Course in Probability Theory&lt;br&gt;&lt;b&gt;Sheldon Ross&lt;/b&gt;" style="rounded=0;whiteSpace=wrap;html=1;fillColor=#dae8fc;strokeColor=#6c8ebf;fontColor=#000000;fontFamily=Comic Sans MS;" parent="XHwMdBdWKg2Phqc04OuS-78" vertex="1">
                    <mxGeometry x="225" y="40" width="188" height="60" as="geometry"/>
                </mxCell>
                <mxCell id="XHwMdBdWKg2Phqc04OuS-80" value="A Natural Introduction to Probability&lt;br&gt;&lt;b&gt;R. Meester&lt;/b&gt;" style="rounded=0;whiteSpace=wrap;html=1;fillColor=#dae8fc;strokeColor=#6c8ebf;fontColor=#000000;fontFamily=Comic Sans MS;" parent="XHwMdBdWKg2Phqc04OuS-78" vertex="1">
                    <mxGeometry x="22" y="120" width="188" height="60" as="geometry"/>
                </mxCell>
                <mxCell id="XHwMdBdWKg2Phqc04OuS-81" value="Inroduction to Probability&lt;br&gt;&lt;b&gt;Dimitri Berstekas, John N. Tsitsiklis&lt;/b&gt;" style="rounded=0;whiteSpace=wrap;html=1;fillColor=#dae8fc;strokeColor=#6c8ebf;fontColor=#000000;fontFamily=Comic Sans MS;" parent="XHwMdBdWKg2Phqc04OuS-78" vertex="1">
                    <mxGeometry x="22" y="40" width="188" height="60" as="geometry"/>
                </mxCell>
                <mxCell id="XHwMdBdWKg2Phqc04OuS-82" value="Introduction to Probability&lt;br&gt;&lt;b&gt;Joseph K. Blitzstein, Jessica Hwang&lt;/b&gt;" style="rounded=0;whiteSpace=wrap;html=1;fillColor=#dae8fc;strokeColor=#6c8ebf;fontColor=#000000;fontFamily=Comic Sans MS;" parent="XHwMdBdWKg2Phqc04OuS-78" vertex="1">
                    <mxGeometry x="225" y="120" width="188" height="60" as="geometry"/>
                </mxCell>
                <mxCell id="XHwMdBdWKg2Phqc04OuS-102" style="edgeStyle=orthogonalEdgeStyle;rounded=0;orthogonalLoop=1;jettySize=auto;html=1;exitX=0.5;exitY=1;exitDx=0;exitDy=0;entryX=0.5;entryY=0;entryDx=0;entryDy=0;fontColor=#000000;fontFamily=Comic Sans MS;" parent="1" source="XHwMdBdWKg2Phqc04OuS-84" target="XHwMdBdWKg2Phqc04OuS-94" edge="1">
                    <mxGeometry relative="1" as="geometry"/>
                </mxCell>
                <mxCell id="XHwMdBdWKg2Phqc04OuS-84" value="Introduction to Mathematical Statistics" style="swimlane;fillColor=#dae8fc;strokeColor=#6c8ebf;fontColor=#000000;fontFamily=Comic Sans MS;" parent="1" vertex="1">
                    <mxGeometry x="110" y="2040" width="540" height="280" as="geometry"/>
                </mxCell>
                <mxCell id="XHwMdBdWKg2Phqc04OuS-85" value="An Introduction to Mathematical Statistics and Its Applications&lt;br&gt;&lt;b&gt;Richard Larsen, Morris Marx&lt;/b&gt;" style="rounded=0;whiteSpace=wrap;html=1;fillColor=#dae8fc;strokeColor=#6c8ebf;fontColor=#000000;fontFamily=Comic Sans MS;" parent="XHwMdBdWKg2Phqc04OuS-84" vertex="1">
                    <mxGeometry x="280" y="38" width="238" height="60" as="geometry"/>
                </mxCell>
                <mxCell id="XHwMdBdWKg2Phqc04OuS-88" value="Modern Mathematical Statistics with Applications&lt;br&gt;&lt;b&gt;Jay L. Devore, Kenneth N. Berk&lt;/b&gt;" style="rounded=0;whiteSpace=wrap;html=1;fillColor=#dae8fc;strokeColor=#6c8ebf;fontColor=#000000;fontFamily=Comic Sans MS;" parent="XHwMdBdWKg2Phqc04OuS-84" vertex="1">
                    <mxGeometry x="280" y="200" width="238" height="60" as="geometry"/>
                </mxCell>
                <mxCell id="XHwMdBdWKg2Phqc04OuS-89" value="A Modern Introduction to Probability and Statistics: Understanding Why and How&lt;br&gt;&lt;b&gt;F.M. Dekking, C. Kraaikamp, H.P. Lopuhaä, L.E. Meester&lt;/b&gt;&lt;br&gt;" style="rounded=0;whiteSpace=wrap;html=1;fillColor=#dae8fc;strokeColor=#6c8ebf;fontColor=#000000;fontFamily=Comic Sans MS;" parent="XHwMdBdWKg2Phqc04OuS-84" vertex="1">
                    <mxGeometry x="26" y="195" width="234" height="70" as="geometry"/>
                </mxCell>
                <mxCell id="XHwMdBdWKg2Phqc04OuS-90" value="Introduction to Probability and Mathematical Statistics&lt;br&gt;&lt;b&gt;Lee J. Bain, Max Engelhardt&lt;/b&gt;" style="rounded=0;whiteSpace=wrap;html=1;fillColor=#dae8fc;strokeColor=#6c8ebf;fontColor=#000000;fontFamily=Comic Sans MS;" parent="XHwMdBdWKg2Phqc04OuS-84" vertex="1">
                    <mxGeometry x="26" y="38" width="218" height="60" as="geometry"/>
                </mxCell>
                <mxCell id="XHwMdBdWKg2Phqc04OuS-86" value="&lt;div&gt;Introduction to Mathematical Statistics&lt;/div&gt;&lt;div&gt;&lt;b&gt;Robert V. Hogg, Joseph W. McKean, Allen T. Craig&lt;/b&gt;&lt;/div&gt;" style="rounded=0;whiteSpace=wrap;html=1;fillColor=#dae8fc;strokeColor=#6c8ebf;fontColor=#000000;fontFamily=Comic Sans MS;" parent="XHwMdBdWKg2Phqc04OuS-84" vertex="1">
                    <mxGeometry x="280" y="120" width="238" height="60" as="geometry"/>
                </mxCell>
                <mxCell id="XHwMdBdWKg2Phqc04OuS-87" value="&lt;div&gt;Mathematical Statistics with Applications&lt;/div&gt;&lt;div&gt;&lt;b&gt;Dennis D. Wackerly, William Mendenhall, Richard L. Scheaffer&lt;/b&gt;&lt;/div&gt;" style="rounded=0;whiteSpace=wrap;html=1;fillColor=#dae8fc;strokeColor=#6c8ebf;fontColor=#000000;fontFamily=Comic Sans MS;" parent="XHwMdBdWKg2Phqc04OuS-84" vertex="1">
                    <mxGeometry x="26" y="120" width="238" height="60" as="geometry"/>
                </mxCell>
                <mxCell id="XHwMdBdWKg2Phqc04OuS-108" style="edgeStyle=orthogonalEdgeStyle;rounded=0;orthogonalLoop=1;jettySize=auto;html=1;exitX=0.5;exitY=1;exitDx=0;exitDy=0;entryX=0.5;entryY=0;entryDx=0;entryDy=0;fontColor=#000000;fontFamily=Comic Sans MS;" parent="1" source="XHwMdBdWKg2Phqc04OuS-94" target="XHwMdBdWKg2Phqc04OuS-103" edge="1">
                    <mxGeometry relative="1" as="geometry"/>
                </mxCell>
                <mxCell id="XHwMdBdWKg2Phqc04OuS-122" style="edgeStyle=orthogonalEdgeStyle;rounded=0;orthogonalLoop=1;jettySize=auto;html=1;exitX=1;exitY=0.5;exitDx=0;exitDy=0;entryX=0;entryY=0.5;entryDx=0;entryDy=0;fontColor=#000000;fontFamily=Comic Sans MS;" parent="1" source="XHwMdBdWKg2Phqc04OuS-94" target="XHwMdBdWKg2Phqc04OuS-116" edge="1">
                    <mxGeometry relative="1" as="geometry"/>
                </mxCell>
                <mxCell id="XHwMdBdWKg2Phqc04OuS-94" value="Advanced Probability Theory" style="swimlane;fillColor=#dae8fc;strokeColor=#6c8ebf;fontColor=#000000;fontFamily=Comic Sans MS;" parent="1" vertex="1">
                    <mxGeometry x="150" y="2440" width="460" height="280" as="geometry"/>
                </mxCell>
                <mxCell id="XHwMdBdWKg2Phqc04OuS-95" value="An Introduction to Probability and Statistics&lt;br&gt;&lt;b&gt;V. K. Rohatgi, A. K. Md. E. Saleh&lt;/b&gt;" style="rounded=0;whiteSpace=wrap;html=1;fillColor=#dae8fc;strokeColor=#6c8ebf;fontColor=#000000;fontFamily=Comic Sans MS;" parent="XHwMdBdWKg2Phqc04OuS-94" vertex="1">
                    <mxGeometry x="20.5" y="40" width="205.5" height="60" as="geometry"/>
                </mxCell>
                <mxCell id="XHwMdBdWKg2Phqc04OuS-96" value="A First Look at Rigorous Probability Theory&lt;br&gt;&lt;b&gt;Jeffrey S. Rosenthal&lt;/b&gt;" style="rounded=0;whiteSpace=wrap;html=1;fillColor=#dae8fc;strokeColor=#6c8ebf;fontColor=#000000;fontFamily=Comic Sans MS;" parent="XHwMdBdWKg2Phqc04OuS-94" vertex="1">
                    <mxGeometry x="250" y="40" width="190" height="60" as="geometry"/>
                </mxCell>
                <mxCell id="XHwMdBdWKg2Phqc04OuS-97" value="A User's Guide to Measure Theoretic Probability&lt;br&gt;&lt;b&gt;David Pollard&lt;/b&gt;" style="rounded=0;whiteSpace=wrap;html=1;fillColor=#dae8fc;strokeColor=#6c8ebf;fontColor=#000000;fontFamily=Comic Sans MS;" parent="XHwMdBdWKg2Phqc04OuS-94" vertex="1">
                    <mxGeometry x="20.5" y="120" width="190" height="60" as="geometry"/>
                </mxCell>
                <mxCell id="XHwMdBdWKg2Phqc04OuS-98" value="Probability &lt;br&gt;&lt;b&gt;A. N. Shiryayev&lt;/b&gt;" style="rounded=0;whiteSpace=wrap;html=1;fillColor=#dae8fc;strokeColor=#6c8ebf;fontColor=#000000;fontFamily=Comic Sans MS;" parent="XHwMdBdWKg2Phqc04OuS-94" vertex="1">
                    <mxGeometry x="239.75" y="200" width="120" height="60" as="geometry"/>
                </mxCell>
                <mxCell id="XHwMdBdWKg2Phqc04OuS-99" value="Probability and Measure&lt;br&gt;&lt;b&gt;Patrick Billingsley&lt;/b&gt;" style="rounded=0;whiteSpace=wrap;html=1;fillColor=#dae8fc;strokeColor=#6c8ebf;fontColor=#000000;fontFamily=Comic Sans MS;" parent="XHwMdBdWKg2Phqc04OuS-94" vertex="1">
                    <mxGeometry x="100.25" y="200" width="120" height="60" as="geometry"/>
                </mxCell>
                <mxCell id="XHwMdBdWKg2Phqc04OuS-100" value="An Introduction to Probability Theory and Its Applications&lt;br&gt;&lt;b&gt;William Feller&lt;/b&gt;" style="rounded=0;whiteSpace=wrap;html=1;fillColor=#dae8fc;strokeColor=#6c8ebf;fontColor=#000000;fontFamily=Comic Sans MS;" parent="XHwMdBdWKg2Phqc04OuS-94" vertex="1">
                    <mxGeometry x="271" y="120" width="170" height="60" as="geometry"/>
                </mxCell>
                <mxCell id="XHwMdBdWKg2Phqc04OuS-103" value="Advanced Mathematical Statistics" style="swimlane;startSize=23;fillColor=#dae8fc;strokeColor=#6c8ebf;fontColor=#000000;fontFamily=Comic Sans MS;" parent="1" vertex="1">
                    <mxGeometry x="187.5" y="2840" width="385" height="270" as="geometry"/>
                </mxCell>
                <mxCell id="XHwMdBdWKg2Phqc04OuS-104" value="Statistical Inference&lt;br&gt;&lt;b&gt;George Casella, Roger L. Berger&lt;/b&gt;" style="rounded=0;whiteSpace=wrap;html=1;fillColor=#dae8fc;strokeColor=#6c8ebf;fontColor=#000000;fontFamily=Comic Sans MS;" parent="XHwMdBdWKg2Phqc04OuS-103" vertex="1">
                    <mxGeometry x="24.5" y="40" width="120" height="60" as="geometry"/>
                </mxCell>
                <mxCell id="XHwMdBdWKg2Phqc04OuS-105" value="Mathematical Statistics: Basic Ideas and Selected Topics&lt;br&gt;&lt;b&gt;Kjell A. Doksum, Peter J. Bickel&lt;/b&gt;" style="rounded=0;whiteSpace=wrap;html=1;fillColor=#dae8fc;strokeColor=#6c8ebf;fontColor=#000000;fontFamily=Comic Sans MS;" parent="XHwMdBdWKg2Phqc04OuS-103" vertex="1">
                    <mxGeometry x="160.5" y="40" width="199.5" height="60" as="geometry"/>
                </mxCell>
                <mxCell id="XHwMdBdWKg2Phqc04OuS-106" value="Robust Statistics &lt;b&gt;Frank&amp;nbsp; R. H., Elvezio M. R., Peter J. R., Werner A. S.&lt;/b&gt;" style="rounded=0;whiteSpace=wrap;html=1;fillColor=#dae8fc;strokeColor=#6c8ebf;fontColor=#000000;fontFamily=Comic Sans MS;" parent="XHwMdBdWKg2Phqc04OuS-103" vertex="1">
                    <mxGeometry x="170" y="120" width="193" height="60" as="geometry"/>
                </mxCell>
                <mxCell id="XHwMdBdWKg2Phqc04OuS-107" value="Theory of Statistics&lt;br&gt;&lt;b&gt;Mark J. Schervish&lt;/b&gt;" style="rounded=0;whiteSpace=wrap;html=1;fillColor=#dae8fc;strokeColor=#6c8ebf;fontColor=#000000;fontFamily=Comic Sans MS;" parent="XHwMdBdWKg2Phqc04OuS-103" vertex="1">
                    <mxGeometry x="24.5" y="120" width="120" height="60" as="geometry"/>
                </mxCell>
                <mxCell id="XHwMdBdWKg2Phqc04OuS-91" value="All of Statistics&lt;br&gt;&lt;b&gt;Larry Wasserman&lt;/b&gt;" style="rounded=0;whiteSpace=wrap;html=1;fillColor=#dae8fc;strokeColor=#6c8ebf;fontColor=#000000;fontFamily=Comic Sans MS;" parent="XHwMdBdWKg2Phqc04OuS-103" vertex="1">
                    <mxGeometry x="24.5" y="190" width="130" height="60" as="geometry"/>
                </mxCell>
                <mxCell id="XHwMdBdWKg2Phqc04OuS-92" value="All of Nonparametric Statistics&lt;br&gt;&lt;b&gt;Larry Wasserman&lt;/b&gt;" style="rounded=0;whiteSpace=wrap;html=1;fillColor=#dae8fc;strokeColor=#6c8ebf;fontColor=#000000;fontFamily=Comic Sans MS;" parent="XHwMdBdWKg2Phqc04OuS-103" vertex="1">
                    <mxGeometry x="175" y="190" width="188" height="60" as="geometry"/>
                </mxCell>
                <mxCell id="XHwMdBdWKg2Phqc04OuS-115" style="edgeStyle=orthogonalEdgeStyle;rounded=0;orthogonalLoop=1;jettySize=auto;html=1;exitX=0;exitY=0.5;exitDx=0;exitDy=0;entryX=1;entryY=0.5;entryDx=0;entryDy=0;fontColor=#000000;fontFamily=Comic Sans MS;" parent="1" source="XHwMdBdWKg2Phqc04OuS-109" target="XHwMdBdWKg2Phqc04OuS-84" edge="1">
                    <mxGeometry relative="1" as="geometry"/>
                </mxCell>
                <mxCell id="XHwMdBdWKg2Phqc04OuS-109" value="Introduction to Statistics" style="swimlane;fillColor=#e1d5e7;strokeColor=#9673a6;fontColor=#000000;fontFamily=Comic Sans MS;" parent="1" vertex="1">
                    <mxGeometry x="800" y="2049.9964705882353" width="305" height="260" as="geometry"/>
                </mxCell>
                <mxCell id="XHwMdBdWKg2Phqc04OuS-110" value="&lt;div&gt;OpenIntro Statistics&lt;/div&gt;&lt;div&gt;&lt;b&gt;David M. Diez, Christopher D. Barr, Mine Çetinkaya-Rundel&lt;/b&gt;&lt;/div&gt;" style="rounded=0;whiteSpace=wrap;html=1;fillColor=#e1d5e7;strokeColor=#9673a6;fontColor=#000000;fontFamily=Comic Sans MS;" parent="XHwMdBdWKg2Phqc04OuS-109" vertex="1">
                    <mxGeometry x="52.5" y="180" width="200" height="60" as="geometry"/>
                </mxCell>
                <mxCell id="XHwMdBdWKg2Phqc04OuS-111" value="&lt;div&gt;Introductory Statistics&lt;/div&gt;&lt;div&gt;&lt;b&gt;Sheldon M. Ross&lt;/b&gt;&lt;/div&gt;" style="rounded=0;whiteSpace=wrap;html=1;fillColor=#e1d5e7;strokeColor=#9673a6;fontColor=#000000;fontFamily=Comic Sans MS;" parent="XHwMdBdWKg2Phqc04OuS-109" vertex="1">
                    <mxGeometry x="15" y="110" width="135" height="60" as="geometry"/>
                </mxCell>
                <mxCell id="XHwMdBdWKg2Phqc04OuS-112" value="&lt;div&gt;Introductory Statistics&lt;/div&gt;&lt;div&gt;&lt;b&gt;Neil A. Weiss&lt;/b&gt;&lt;/div&gt;" style="rounded=0;whiteSpace=wrap;html=1;fillColor=#e1d5e7;strokeColor=#9673a6;fontColor=#000000;fontFamily=Comic Sans MS;" parent="XHwMdBdWKg2Phqc04OuS-109" vertex="1">
                    <mxGeometry x="160" y="110" width="130" height="60" as="geometry"/>
                </mxCell>
                <mxCell id="XHwMdBdWKg2Phqc04OuS-113" value="&lt;div&gt;Elementary Statistics&lt;/div&gt;&lt;div&gt;&lt;b&gt;Allan G. Bluman&lt;/b&gt;&lt;/div&gt;" style="rounded=0;whiteSpace=wrap;html=1;fillColor=#e1d5e7;strokeColor=#9673a6;fontColor=#000000;fontFamily=Comic Sans MS;" parent="XHwMdBdWKg2Phqc04OuS-109" vertex="1">
                    <mxGeometry x="15" y="40" width="135" height="60" as="geometry"/>
                </mxCell>
                <mxCell id="XHwMdBdWKg2Phqc04OuS-114" value="&lt;div&gt;Introductory Statistics&lt;/div&gt;&lt;div&gt;&lt;b&gt;Prem S. Mann&lt;/b&gt;&lt;/div&gt;" style="rounded=0;whiteSpace=wrap;html=1;fillColor=#e1d5e7;strokeColor=#9673a6;fontColor=#000000;fontFamily=Comic Sans MS;" parent="XHwMdBdWKg2Phqc04OuS-109" vertex="1">
                    <mxGeometry x="160" y="40" width="130" height="60" as="geometry"/>
                </mxCell>
                <mxCell id="XHwMdBdWKg2Phqc04OuS-116" value="Philosophy of Probability and Statistics" style="swimlane;fillColor=#e1d5e7;strokeColor=#9673a6;fontColor=#000000;fontFamily=Comic Sans MS;" parent="1" vertex="1">
                    <mxGeometry x="760" y="2428.75" width="330" height="302.5" as="geometry"/>
                </mxCell>
                <mxCell id="XHwMdBdWKg2Phqc04OuS-117" value="&lt;div&gt;Interpreting Probability: Controversies and Developments in the early twentieth century&lt;/div&gt;&lt;div&gt;&lt;b&gt;David Howie&lt;/b&gt;&lt;/div&gt;" style="rounded=0;whiteSpace=wrap;html=1;fillColor=#e1d5e7;strokeColor=#9673a6;fontColor=#000000;fontFamily=Comic Sans MS;" parent="XHwMdBdWKg2Phqc04OuS-116" vertex="1">
                    <mxGeometry x="36.5" y="175" width="250" height="60" as="geometry"/>
                </mxCell>
                <mxCell id="XHwMdBdWKg2Phqc04OuS-118" value="&lt;div&gt;An Introduction to Probability and Inductive Logic&lt;/div&gt;&lt;div&gt;&lt;b&gt;Ian Hacking&lt;/b&gt;&lt;/div&gt;" style="rounded=0;whiteSpace=wrap;html=1;fillColor=#e1d5e7;strokeColor=#9673a6;fontColor=#000000;fontFamily=Comic Sans MS;" parent="XHwMdBdWKg2Phqc04OuS-116" vertex="1">
                    <mxGeometry x="20" y="35" width="150" height="60" as="geometry"/>
                </mxCell>
                <mxCell id="XHwMdBdWKg2Phqc04OuS-119" value="&lt;div&gt;The Foundations of Statistics&lt;/div&gt;&lt;div&gt;&lt;b&gt;Leonard J. Savage&lt;/b&gt;&lt;/div&gt;" style="rounded=0;whiteSpace=wrap;html=1;fillColor=#e1d5e7;strokeColor=#9673a6;fontColor=#000000;fontFamily=Comic Sans MS;" parent="XHwMdBdWKg2Phqc04OuS-116" vertex="1">
                    <mxGeometry x="180" y="35" width="130" height="60" as="geometry"/>
                </mxCell>
                <mxCell id="XHwMdBdWKg2Phqc04OuS-120" value="&lt;div&gt;Probability Theory: The Logic of Science&lt;/div&gt;&lt;div&gt;&lt;b&gt;E. T. Jaynes&lt;/b&gt;&lt;/div&gt;" style="rounded=0;whiteSpace=wrap;html=1;fillColor=#e1d5e7;strokeColor=#9673a6;fontColor=#000000;fontFamily=Comic Sans MS;" parent="XHwMdBdWKg2Phqc04OuS-116" vertex="1">
                    <mxGeometry x="20" y="105" width="150" height="60" as="geometry"/>
                </mxCell>
                <mxCell id="XHwMdBdWKg2Phqc04OuS-121" value="&lt;div&gt;Reasoning About Uncertainty&lt;/div&gt;&lt;div&gt;&lt;b&gt;Joseph Y. Halpern&lt;/b&gt;&lt;/div&gt;" style="rounded=0;whiteSpace=wrap;html=1;fillColor=#e1d5e7;strokeColor=#9673a6;fontColor=#000000;fontFamily=Comic Sans MS;" parent="XHwMdBdWKg2Phqc04OuS-116" vertex="1">
                    <mxGeometry x="180" y="105" width="130" height="60" as="geometry"/>
                </mxCell>
                <mxCell id="XHwMdBdWKg2Phqc04OuS-123" value="Bayesian Theory&lt;br&gt;&lt;b&gt;Jose M. Bernardo&lt;/b&gt;" style="rounded=0;whiteSpace=wrap;html=1;fillColor=#e1d5e7;strokeColor=#9673a6;fontColor=#000000;fontFamily=Comic Sans MS;" parent="XHwMdBdWKg2Phqc04OuS-116" vertex="1">
                    <mxGeometry x="20" y="245" width="130" height="45" as="geometry"/>
                </mxCell>
                <mxCell id="XHwMdBdWKg2Phqc04OuS-124" value="Theory of Probability&lt;br&gt;&lt;b&gt;Bruno de Finetti&lt;/b&gt;" style="rounded=0;whiteSpace=wrap;html=1;fillColor=#e1d5e7;strokeColor=#9673a6;fontColor=#000000;fontFamily=Comic Sans MS;" parent="XHwMdBdWKg2Phqc04OuS-116" vertex="1">
                    <mxGeometry x="160" y="245" width="150" height="45" as="geometry"/>
                </mxCell>
                <mxCell id="XHwMdBdWKg2Phqc04OuS-125" value="Introduction to Game Theory" style="swimlane;fillColor=#dae8fc;strokeColor=#6c8ebf;fontColor=#000000;fontFamily=Comic Sans MS;" parent="1" vertex="1">
                    <mxGeometry x="800" y="1685" width="289" height="270" as="geometry"/>
                </mxCell>
                <mxCell id="XHwMdBdWKg2Phqc04OuS-126" value="&lt;div&gt;Strategy&lt;/div&gt;&lt;div&gt;&lt;b&gt;Joel Watson&lt;/b&gt;&lt;/div&gt;" style="rounded=0;whiteSpace=wrap;html=1;fillColor=#dae8fc;strokeColor=#6c8ebf;fontColor=#000000;fontFamily=Comic Sans MS;" parent="XHwMdBdWKg2Phqc04OuS-125" vertex="1">
                    <mxGeometry x="156" y="34.94117647058829" width="120" height="60" as="geometry"/>
                </mxCell>
                <mxCell id="XHwMdBdWKg2Phqc04OuS-127" value="&lt;div&gt;Game Theory&lt;/div&gt;&lt;div&gt;&lt;b&gt;Steven Tadelis&lt;/b&gt;&lt;/div&gt;" style="rounded=0;whiteSpace=wrap;html=1;fillColor=#dae8fc;strokeColor=#6c8ebf;fontColor=#000000;fontFamily=Comic Sans MS;" parent="XHwMdBdWKg2Phqc04OuS-125" vertex="1">
                    <mxGeometry x="16" y="34.94117647058829" width="120" height="60" as="geometry"/>
                </mxCell>
                <mxCell id="XHwMdBdWKg2Phqc04OuS-128" value="&lt;div&gt;Game Theory: A Critical Introduction&lt;/div&gt;&lt;div&gt;&lt;b&gt;Shaun P. Hargreaves Heap, Yanis Varoufakis&lt;/b&gt;&lt;/div&gt;" style="rounded=0;whiteSpace=wrap;html=1;fillColor=#dae8fc;strokeColor=#6c8ebf;fontColor=#000000;fontFamily=Comic Sans MS;" parent="XHwMdBdWKg2Phqc04OuS-125" vertex="1">
                    <mxGeometry x="21" y="114.94117647058829" width="250" height="60" as="geometry"/>
                </mxCell>
                <mxCell id="XHwMdBdWKg2Phqc04OuS-129" value="&lt;div&gt;Game Theory Evolving: A Problem-Centered Introduction to Modeling Strategic Interaction&lt;/div&gt;&lt;div&gt;&lt;b&gt;Herbert Gintis&lt;/b&gt;&lt;/div&gt;" style="rounded=0;whiteSpace=wrap;html=1;fillColor=#dae8fc;strokeColor=#6c8ebf;fontColor=#000000;fontFamily=Comic Sans MS;" parent="XHwMdBdWKg2Phqc04OuS-125" vertex="1">
                    <mxGeometry x="16" y="194.9411764705883" width="260" height="60" as="geometry"/>
                </mxCell>
                <mxCell id="XHwMdBdWKg2Phqc04OuS-132" style="edgeStyle=orthogonalEdgeStyle;rounded=0;orthogonalLoop=1;jettySize=auto;html=1;exitX=0.5;exitY=1;exitDx=0;exitDy=0;entryX=0.5;entryY=0;entryDx=0;entryDy=0;fontColor=#000000;fontFamily=Comic Sans MS;" parent="1" source="XHwMdBdWKg2Phqc04OuS-133" target="XHwMdBdWKg2Phqc04OuS-139" edge="1">
                    <mxGeometry relative="1" as="geometry"/>
                </mxCell>
                <mxCell id="XHwMdBdWKg2Phqc04OuS-133" value="Introduction to Optimization Theory" style="swimlane;fillColor=#dae8fc;strokeColor=#6c8ebf;fontColor=#000000;fontFamily=Comic Sans MS;" parent="1" vertex="1">
                    <mxGeometry x="-460" y="2041" width="430" height="277" as="geometry"/>
                </mxCell>
                <mxCell id="XHwMdBdWKg2Phqc04OuS-134" value="A First Course in Optimization Theory&lt;br&gt;&lt;b&gt;Rangarajan K. Sundaram&lt;/b&gt;&lt;br&gt;" style="rounded=0;whiteSpace=wrap;html=1;fillColor=#dae8fc;strokeColor=#6c8ebf;fontColor=#000000;fontFamily=Comic Sans MS;" parent="XHwMdBdWKg2Phqc04OuS-133" vertex="1">
                    <mxGeometry x="19" y="40" width="181" height="60" as="geometry"/>
                </mxCell>
                <mxCell id="XHwMdBdWKg2Phqc04OuS-135" value="Introduction to Linear Optimization&lt;br&gt;&lt;b&gt;Dimitris Bertsimas. John N. Tsitsiklis&lt;/b&gt;&lt;br&gt;" style="rounded=0;whiteSpace=wrap;html=1;fillColor=#dae8fc;strokeColor=#6c8ebf;fontColor=#000000;fontFamily=Comic Sans MS;" parent="XHwMdBdWKg2Phqc04OuS-133" vertex="1">
                    <mxGeometry x="210" y="40" width="201.5" height="60" as="geometry"/>
                </mxCell>
                <mxCell id="XHwMdBdWKg2Phqc04OuS-136" value="Applied Optimization&lt;br&gt;&lt;b&gt;Ross Baldick&lt;/b&gt;&lt;br&gt;" style="rounded=0;whiteSpace=wrap;html=1;fillColor=#dae8fc;strokeColor=#6c8ebf;fontColor=#000000;fontFamily=Comic Sans MS;" parent="XHwMdBdWKg2Phqc04OuS-133" vertex="1">
                    <mxGeometry x="18" y="118.5" width="164" height="60" as="geometry"/>
                </mxCell>
                <mxCell id="XHwMdBdWKg2Phqc04OuS-137" value="An Introduction to Optimization&lt;br&gt;&lt;b&gt;Edwin K.P. Chong, Stanislaw H. Zak&lt;/b&gt;&lt;br&gt;" style="rounded=0;whiteSpace=wrap;html=1;fillColor=#dae8fc;strokeColor=#6c8ebf;fontColor=#000000;fontFamily=Comic Sans MS;" parent="XHwMdBdWKg2Phqc04OuS-133" vertex="1">
                    <mxGeometry x="100" y="198.5" width="221" height="60" as="geometry"/>
                </mxCell>
                <mxCell id="XHwMdBdWKg2Phqc04OuS-138" value="Practical Optimization&lt;br&gt;&lt;b&gt;Philip E. Gill, Walter Murray, Margaret H. Wright&lt;/b&gt;" style="rounded=0;whiteSpace=wrap;html=1;fillColor=#dae8fc;strokeColor=#6c8ebf;fontColor=#000000;fontFamily=Comic Sans MS;" parent="XHwMdBdWKg2Phqc04OuS-133" vertex="1">
                    <mxGeometry x="231.5" y="118.5" width="180" height="60" as="geometry"/>
                </mxCell>
                <mxCell id="XHwMdBdWKg2Phqc04OuS-139" value="Convex Optimization" style="swimlane;fillColor=#dae8fc;strokeColor=#6c8ebf;startSize=23;fontColor=#000000;fontFamily=Comic Sans MS;" parent="1" vertex="1">
                    <mxGeometry x="-443" y="2400.5" width="396" height="196" as="geometry"/>
                </mxCell>
                <mxCell id="XHwMdBdWKg2Phqc04OuS-140" value="Convex Optimization Theory&lt;br&gt;&lt;b&gt;Dimitri P. Bertsekas&lt;/b&gt;&lt;br&gt;" style="rounded=0;whiteSpace=wrap;html=1;fillColor=#dae8fc;strokeColor=#6c8ebf;fontColor=#000000;fontFamily=Comic Sans MS;" parent="XHwMdBdWKg2Phqc04OuS-139" vertex="1">
                    <mxGeometry x="19" y="40" width="162" height="60" as="geometry"/>
                </mxCell>
                <mxCell id="XHwMdBdWKg2Phqc04OuS-141" value="Convex Optimization&lt;br&gt;&lt;b&gt;Stephen Boyd, Lieven Vandenberghe&lt;/b&gt;&lt;br&gt;" style="rounded=0;whiteSpace=wrap;html=1;fillColor=#dae8fc;strokeColor=#6c8ebf;fontColor=#000000;fontFamily=Comic Sans MS;" parent="XHwMdBdWKg2Phqc04OuS-139" vertex="1">
                    <mxGeometry x="200" y="40" width="171" height="60" as="geometry"/>
                </mxCell>
                <mxCell id="XHwMdBdWKg2Phqc04OuS-142" value="Convex Analysis and Nonlinear Optimization&lt;br&gt;&lt;b&gt;Jonathan M. Borwein, Adrian S. Lewis&lt;/b&gt;&lt;br&gt;" style="rounded=0;whiteSpace=wrap;html=1;fillColor=#dae8fc;strokeColor=#6c8ebf;fontColor=#000000;fontFamily=Comic Sans MS;" parent="XHwMdBdWKg2Phqc04OuS-139" vertex="1">
                    <mxGeometry x="18" y="118.5" width="164" height="60" as="geometry"/>
                </mxCell>
                <mxCell id="XHwMdBdWKg2Phqc04OuS-143" value="Foundations of Optimization&lt;br&gt;&lt;b&gt;Osman Güler&lt;/b&gt;&lt;br&gt;" style="rounded=0;whiteSpace=wrap;html=1;fillColor=#dae8fc;strokeColor=#6c8ebf;fontColor=#000000;fontFamily=Comic Sans MS;" parent="XHwMdBdWKg2Phqc04OuS-139" vertex="1">
                    <mxGeometry x="204" y="118.5" width="164" height="60" as="geometry"/>
                </mxCell>
                <mxCell id="XHwMdBdWKg2Phqc04OuS-161" style="edgeStyle=orthogonalEdgeStyle;rounded=0;orthogonalLoop=1;jettySize=auto;html=1;exitX=0.5;exitY=1;exitDx=0;exitDy=0;fontColor=#000000;fontFamily=Comic Sans MS;" parent="1" source="XHwMdBdWKg2Phqc04OuS-162" target="XHwMdBdWKg2Phqc04OuS-168" edge="1">
                    <mxGeometry relative="1" as="geometry"/>
                </mxCell>
                <mxCell id="XHwMdBdWKg2Phqc04OuS-162" value="Algebraic Topology Motivation" style="swimlane;fillColor=#dae8fc;strokeColor=#6c8ebf;fontColor=#000000;fontFamily=Comic Sans MS;" parent="1" vertex="1">
                    <mxGeometry x="-2300" y="1400" width="302" height="267" as="geometry"/>
                </mxCell>
                <mxCell id="XHwMdBdWKg2Phqc04OuS-163" value="Invitation to Combinatorial Topology&lt;br&gt;&lt;b&gt;Maurice Frechet and Ky Fan&lt;/b&gt;" style="rounded=0;whiteSpace=wrap;html=1;fillColor=#dae8fc;strokeColor=#6c8ebf;fontColor=#000000;fontFamily=Comic Sans MS;" parent="XHwMdBdWKg2Phqc04OuS-162" vertex="1">
                    <mxGeometry x="26" y="40" width="254" height="60" as="geometry"/>
                </mxCell>
                <mxCell id="XHwMdBdWKg2Phqc04OuS-164" value="Basic Concepts of Algebraic Topology&lt;br&gt;&lt;b&gt;Fred H. Croom&lt;/b&gt;" style="rounded=0;whiteSpace=wrap;html=1;fillColor=#dae8fc;strokeColor=#6c8ebf;fontColor=#000000;fontFamily=Comic Sans MS;" parent="XHwMdBdWKg2Phqc04OuS-162" vertex="1">
                    <mxGeometry x="26" y="114.5" width="120" height="60" as="geometry"/>
                </mxCell>
                <mxCell id="XHwMdBdWKg2Phqc04OuS-165" value="Basic Topology&lt;br&gt;&lt;b&gt;M.A. Armstrong&lt;/b&gt;" style="rounded=0;whiteSpace=wrap;html=1;fillColor=#dae8fc;strokeColor=#6c8ebf;fontColor=#000000;fontFamily=Comic Sans MS;" parent="XHwMdBdWKg2Phqc04OuS-162" vertex="1">
                    <mxGeometry x="158" y="114.5" width="120" height="60" as="geometry"/>
                </mxCell>
                <mxCell id="XHwMdBdWKg2Phqc04OuS-166" value="Topology&lt;br&gt;&lt;b&gt;John G. Hocking, Gail S. Young&lt;/b&gt;" style="rounded=0;whiteSpace=wrap;html=1;fillColor=#dae8fc;strokeColor=#6c8ebf;fontColor=#000000;fontFamily=Comic Sans MS;" parent="XHwMdBdWKg2Phqc04OuS-162" vertex="1">
                    <mxGeometry x="26" y="189.5" width="120" height="60" as="geometry"/>
                </mxCell>
                <mxCell id="XHwMdBdWKg2Phqc04OuS-167" value="Topology &lt;br&gt;&lt;b&gt;Klaus Janich&lt;/b&gt;" style="rounded=0;whiteSpace=wrap;html=1;fillColor=#dae8fc;strokeColor=#6c8ebf;fontColor=#000000;fontFamily=Comic Sans MS;" parent="XHwMdBdWKg2Phqc04OuS-162" vertex="1">
                    <mxGeometry x="158" y="189.5" width="120" height="60" as="geometry"/>
                </mxCell>
                <mxCell id="XHwMdBdWKg2Phqc04OuS-168" value="Introduction to Algebraic Topology" style="swimlane;fillColor=#dae8fc;strokeColor=#6c8ebf;fontColor=#000000;fontFamily=Comic Sans MS;" parent="1" vertex="1">
                    <mxGeometry x="-2300" y="1800" width="302" height="198" as="geometry"/>
                </mxCell>
                <mxCell id="XHwMdBdWKg2Phqc04OuS-169" value="Algebraic Topology: An Introduction&lt;br&gt;&lt;b&gt;William Massey&lt;/b&gt;" style="rounded=0;whiteSpace=wrap;html=1;fillColor=#dae8fc;strokeColor=#6c8ebf;fontColor=#000000;fontFamily=Comic Sans MS;" parent="XHwMdBdWKg2Phqc04OuS-168" vertex="1">
                    <mxGeometry x="20" y="39.5" width="120" height="60" as="geometry"/>
                </mxCell>
                <mxCell id="XHwMdBdWKg2Phqc04OuS-170" value="Algebraic Topology&lt;br&gt;&lt;b&gt;Allen Hatcher&lt;/b&gt;" style="rounded=0;whiteSpace=wrap;html=1;fillColor=#dae8fc;strokeColor=#6c8ebf;fontColor=#000000;fontFamily=Comic Sans MS;" parent="XHwMdBdWKg2Phqc04OuS-168" vertex="1">
                    <mxGeometry x="166" y="39.5" width="120" height="60" as="geometry"/>
                </mxCell>
                <mxCell id="XHwMdBdWKg2Phqc04OuS-171" value="Elements of Algebraic Topology&lt;br&gt;&lt;b&gt;James Munkres&lt;/b&gt;" style="rounded=0;whiteSpace=wrap;html=1;fillColor=#dae8fc;strokeColor=#6c8ebf;fontColor=#000000;fontFamily=Comic Sans MS;" parent="XHwMdBdWKg2Phqc04OuS-168" vertex="1">
                    <mxGeometry x="158" y="114.5" width="128" height="60" as="geometry"/>
                </mxCell>
                <mxCell id="XHwMdBdWKg2Phqc04OuS-172" value="A first course in Algebraic Topology&lt;br&gt;&lt;b&gt;C. Kosniowski&lt;/b&gt;" style="rounded=0;whiteSpace=wrap;html=1;fillColor=#dae8fc;strokeColor=#6c8ebf;fontColor=#000000;fontFamily=Comic Sans MS;" parent="XHwMdBdWKg2Phqc04OuS-168" vertex="1">
                    <mxGeometry x="20" y="114.5" width="120" height="60" as="geometry"/>
                </mxCell>
                <mxCell id="N2863A0XC9Yqkhy7363l-4" value="" style="edgeStyle=orthogonalEdgeStyle;rounded=0;orthogonalLoop=1;jettySize=auto;html=1;fontColor=#000000;fontFamily=Comic Sans MS;" parent="1" source="XHwMdBdWKg2Phqc04OuS-178" target="N2863A0XC9Yqkhy7363l-1" edge="1">
                    <mxGeometry relative="1" as="geometry"/>
                </mxCell>
                <mxCell id="XHwMdBdWKg2Phqc04OuS-178" value="Algebraic Geometry Motivation" style="swimlane;fillColor=#dae8fc;strokeColor=#6c8ebf;fontColor=#000000;fontFamily=Comic Sans MS;" parent="1" vertex="1">
                    <mxGeometry x="-2770" y="1400" width="330" height="120" as="geometry"/>
                </mxCell>
                <mxCell id="XHwMdBdWKg2Phqc04OuS-183" value="Introduction to Algebraic Geometry&lt;br&gt;&lt;b&gt;Brendan Hassett&lt;/b&gt;" style="rounded=0;whiteSpace=wrap;html=1;fillColor=#dae8fc;strokeColor=#6c8ebf;fontColor=#000000;fontFamily=Comic Sans MS;" parent="XHwMdBdWKg2Phqc04OuS-178" vertex="1">
                    <mxGeometry x="178.5" y="40" width="140" height="60" as="geometry"/>
                </mxCell>
                <mxCell id="XHwMdBdWKg2Phqc04OuS-184" value="Ideals Varieties and Algorithms&lt;br&gt;&lt;b&gt;David A. Cox, John Little, Donal O'Shea&lt;/b&gt;" style="rounded=0;whiteSpace=wrap;html=1;fillColor=#dae8fc;strokeColor=#6c8ebf;fontColor=#000000;fontFamily=Comic Sans MS;" parent="XHwMdBdWKg2Phqc04OuS-178" vertex="1">
                    <mxGeometry x="11.5" y="40" width="157" height="63" as="geometry"/>
                </mxCell>
                <mxCell id="N2863A0XC9Yqkhy7363l-1" value="Introduction to Algebraic Geometry" style="swimlane;fillColor=#dae8fc;strokeColor=#6c8ebf;fontColor=#000000;fontFamily=Comic Sans MS;" parent="1" vertex="1">
                    <mxGeometry x="-2755" y="1640" width="300" height="250" as="geometry"/>
                </mxCell>
                <mxCell id="N2863A0XC9Yqkhy7363l-2" value="A Royal Road to Algebraic Geometry&lt;br&gt;&lt;b&gt;Audune Holme&lt;/b&gt;" style="rounded=0;whiteSpace=wrap;html=1;fillColor=#dae8fc;strokeColor=#6c8ebf;fontColor=#000000;fontFamily=Comic Sans MS;" parent="N2863A0XC9Yqkhy7363l-1" vertex="1">
                    <mxGeometry x="150" y="40" width="140" height="60" as="geometry"/>
                </mxCell>
                <mxCell id="N2863A0XC9Yqkhy7363l-3" value="Basic Algebraic Geometry&lt;br&gt;&lt;b&gt;Igor R. Shafarevich&lt;/b&gt;" style="rounded=0;whiteSpace=wrap;html=1;fillColor=#dae8fc;strokeColor=#6c8ebf;fontColor=#000000;fontFamily=Comic Sans MS;" parent="N2863A0XC9Yqkhy7363l-1" vertex="1">
                    <mxGeometry x="11.5" y="40" width="128.5" height="60" as="geometry"/>
                </mxCell>
                <mxCell id="N2863A0XC9Yqkhy7363l-8" value="Algebraic Geometry: A First Course&lt;br&gt;&lt;b&gt;Joe Harris&lt;/b&gt;" style="rounded=0;whiteSpace=wrap;html=1;fillColor=#dae8fc;strokeColor=#6c8ebf;fontColor=#000000;fontFamily=Comic Sans MS;" parent="N2863A0XC9Yqkhy7363l-1" vertex="1">
                    <mxGeometry x="11.5" y="110" width="118.5" height="60" as="geometry"/>
                </mxCell>
                <mxCell id="N2863A0XC9Yqkhy7363l-9" value="Elementary Algebraic Geometry&lt;br&gt;&lt;b&gt;Keith Kendig&lt;/b&gt;" style="rounded=0;whiteSpace=wrap;html=1;fillColor=#dae8fc;strokeColor=#6c8ebf;fontColor=#000000;fontFamily=Comic Sans MS;" parent="N2863A0XC9Yqkhy7363l-1" vertex="1">
                    <mxGeometry x="150" y="110" width="139.25" height="60" as="geometry"/>
                </mxCell>
                <mxCell id="N2863A0XC9Yqkhy7363l-16" value="Introduction to Algebraic Geometry&lt;br&gt;&lt;b&gt;Justin R. Smith&lt;/b&gt;" style="rounded=0;whiteSpace=wrap;html=1;fillColor=#dae8fc;strokeColor=#6c8ebf;fontColor=#000000;fontFamily=Comic Sans MS;" parent="N2863A0XC9Yqkhy7363l-1" vertex="1">
                    <mxGeometry x="80.38000000000011" y="180" width="139.25" height="60" as="geometry"/>
                </mxCell>
                <mxCell id="TdLw2zF5TJnS2Xj7bHxv-11" style="edgeStyle=orthogonalEdgeStyle;rounded=0;orthogonalLoop=1;jettySize=auto;html=1;exitX=0.5;exitY=1;exitDx=0;exitDy=0;entryX=0.5;entryY=0;entryDx=0;entryDy=0;fontColor=#000000;fontFamily=Comic Sans MS;" parent="1" source="XHwMdBdWKg2Phqc04OuS-188" target="TdLw2zF5TJnS2Xj7bHxv-5" edge="1">
                    <mxGeometry relative="1" as="geometry"/>
                </mxCell>
                <mxCell id="XHwMdBdWKg2Phqc04OuS-188" value="Introduction to Differential Geometry" style="swimlane;fillColor=#dae8fc;strokeColor=#6c8ebf;fontColor=#000000;fontFamily=Comic Sans MS;" parent="1" vertex="1">
                    <mxGeometry x="-430" y="2720" width="370" height="270" as="geometry"/>
                </mxCell>
                <mxCell id="XHwMdBdWKg2Phqc04OuS-189" value="A Differential Approach to Geometry&lt;br&gt;&lt;b&gt;Francis Borceux&lt;/b&gt;" style="rounded=0;whiteSpace=wrap;html=1;fillColor=#dae8fc;strokeColor=#6c8ebf;fontColor=#000000;fontFamily=Comic Sans MS;" parent="XHwMdBdWKg2Phqc04OuS-188" vertex="1">
                    <mxGeometry x="20" y="42.5" width="160" height="60" as="geometry"/>
                </mxCell>
                <mxCell id="XHwMdBdWKg2Phqc04OuS-190" value="Differential Geometry of Curves and Surfaces&lt;br&gt;&lt;b&gt;Kristopher Tapp&lt;/b&gt;" style="rounded=0;whiteSpace=wrap;html=1;fillColor=#dae8fc;strokeColor=#6c8ebf;fontColor=#000000;fontFamily=Comic Sans MS;" parent="XHwMdBdWKg2Phqc04OuS-188" vertex="1">
                    <mxGeometry x="190" y="42.5" width="160" height="60" as="geometry"/>
                </mxCell>
                <mxCell id="XHwMdBdWKg2Phqc04OuS-192" value="Differential Geometery of Curves and Surfaces&lt;br&gt;&lt;b&gt;Manfredo P. Do Carmo&lt;/b&gt;" style="rounded=0;whiteSpace=wrap;html=1;fillColor=#dae8fc;strokeColor=#6c8ebf;fontColor=#000000;fontFamily=Comic Sans MS;" parent="XHwMdBdWKg2Phqc04OuS-188" vertex="1">
                    <mxGeometry x="20" y="114" width="160" height="60" as="geometry"/>
                </mxCell>
                <mxCell id="TdLw2zF5TJnS2Xj7bHxv-3" value="Elementary Differential Geometry&lt;br&gt;&lt;b&gt;Barrett O'Neill&lt;/b&gt;" style="rounded=0;whiteSpace=wrap;html=1;fillColor=#dae8fc;strokeColor=#6c8ebf;fontColor=#000000;fontFamily=Comic Sans MS;" parent="XHwMdBdWKg2Phqc04OuS-188" vertex="1">
                    <mxGeometry x="190" y="114" width="160" height="60" as="geometry"/>
                </mxCell>
                <mxCell id="TdLw2zF5TJnS2Xj7bHxv-4" value="Elementary Differential Geometry&lt;br&gt;&lt;b&gt;Andrew Pressley&lt;/b&gt;" style="rounded=0;whiteSpace=wrap;html=1;fillColor=#dae8fc;strokeColor=#6c8ebf;fontColor=#000000;fontFamily=Comic Sans MS;" parent="XHwMdBdWKg2Phqc04OuS-188" vertex="1">
                    <mxGeometry x="105" y="190" width="160" height="60" as="geometry"/>
                </mxCell>
                <mxCell id="TdLw2zF5TJnS2Xj7bHxv-5" value="Advanced Differential Geometry" style="swimlane;fillColor=#dae8fc;strokeColor=#6c8ebf;startSize=23;fontColor=#000000;fontFamily=Comic Sans MS;" parent="1" vertex="1">
                    <mxGeometry x="-430" y="3120" width="370" height="270" as="geometry"/>
                </mxCell>
                <mxCell id="TdLw2zF5TJnS2Xj7bHxv-6" value="Manifolds, Tensors and Forms&lt;br&gt;&lt;b&gt;Paul Renteln&lt;/b&gt;" style="rounded=0;whiteSpace=wrap;html=1;fillColor=#dae8fc;strokeColor=#6c8ebf;fontColor=#000000;fontFamily=Comic Sans MS;" parent="TdLw2zF5TJnS2Xj7bHxv-5" vertex="1">
                    <mxGeometry x="20" y="42.5" width="160" height="60" as="geometry"/>
                </mxCell>
                <mxCell id="TdLw2zF5TJnS2Xj7bHxv-7" value="An Introduction to Differentiable Manifolds and Riemannian Geometry&lt;br&gt;&lt;b&gt;William M. Boothby&lt;/b&gt;" style="rounded=0;whiteSpace=wrap;html=1;fillColor=#dae8fc;strokeColor=#6c8ebf;fontColor=#000000;fontFamily=Comic Sans MS;" parent="TdLw2zF5TJnS2Xj7bHxv-5" vertex="1">
                    <mxGeometry x="190" y="42.5" width="160" height="60" as="geometry"/>
                </mxCell>
                <mxCell id="TdLw2zF5TJnS2Xj7bHxv-8" value="Introduction to Smooth Manifolds&lt;br&gt;&lt;b&gt;John M. Lee&lt;/b&gt;" style="rounded=0;whiteSpace=wrap;html=1;fillColor=#dae8fc;strokeColor=#6c8ebf;fontColor=#000000;fontFamily=Comic Sans MS;" parent="TdLw2zF5TJnS2Xj7bHxv-5" vertex="1">
                    <mxGeometry x="20" y="114" width="160" height="60" as="geometry"/>
                </mxCell>
                <mxCell id="TdLw2zF5TJnS2Xj7bHxv-9" value="A Comprehensive Introduction to Differential Geometry&lt;br&gt;&lt;b&gt;Michael Spivak&lt;/b&gt;" style="rounded=0;whiteSpace=wrap;html=1;fillColor=#dae8fc;strokeColor=#6c8ebf;fontColor=#000000;fontFamily=Comic Sans MS;" parent="TdLw2zF5TJnS2Xj7bHxv-5" vertex="1">
                    <mxGeometry x="190" y="114" width="160" height="60" as="geometry"/>
                </mxCell>
                <mxCell id="TdLw2zF5TJnS2Xj7bHxv-10" value="First Steps in Differential Geometry&lt;br&gt;&lt;b&gt;Andrew Mclnerney&lt;/b&gt;" style="rounded=0;whiteSpace=wrap;html=1;fillColor=#dae8fc;strokeColor=#6c8ebf;fontColor=#000000;fontFamily=Comic Sans MS;" parent="TdLw2zF5TJnS2Xj7bHxv-5" vertex="1">
                    <mxGeometry x="105" y="190" width="160" height="60" as="geometry"/>
                </mxCell>
            </root>
        </mxGraphModel>
    </diagram>
</mxfile>